<?xml version="1.0" encoding="utf-8"?>
<!-- Generator: Adobe Illustrator 18.0.0, SVG Export Plug-In . SVG Version: 6.00 Build 0)  -->
<!DOCTYPE svg PUBLIC "-//W3C//DTD SVG 1.1//EN" "http://www.w3.org/Graphics/SVG/1.1/DTD/svg11.dtd">
<svg version="1.1" id="Layer_1" xmlns="http://www.w3.org/2000/svg" xmlns:xlink="http://www.w3.org/1999/xlink" x="0px" y="0px"
	 width="145px" height="145px" viewBox="0 0 145 145" enable-background="new 0 0 145 145" xml:space="preserve">
<g>
	<g>
		<path fill-rule="evenodd" clip-rule="evenodd" fill="#7E3FD8" d="M72.5,3.1c38.4,0,69.4,31.1,69.4,69.4
			c0,38.4-31.1,69.4-69.4,69.4c-38.4,0-69.4-31.1-69.4-69.4C3.1,34.1,34.1,3.1,72.5,3.1"/>
	</g>
	<g>
		<path fill="#FFFFFF" d="M72.5,132.8c-33.2,0-60.3-27-60.3-60.3c0-33.2,27-60.3,60.3-60.3c33.2,0,60.3,27,60.3,60.3
			C132.8,105.7,105.7,132.8,72.5,132.8z M72.5,15.4C41,15.4,15.4,41,15.4,72.5s25.6,57.1,57.1,57.1c31.5,0,57.1-25.6,57.1-57.1
			S104,15.4,72.5,15.4z"/>
	</g>
	<g>
		<path fill-rule="evenodd" clip-rule="evenodd" fill="#FFFFFF" d="M55.8,69.5c12.9,0,23.3,10.4,23.3,23.3c0,1.7-0.2,3.4-0.5,5H33
			c-0.4-1.6-0.5-3.3-0.5-5C32.5,80,42.9,69.5,55.8,69.5"/>
	</g>
	<g>
		<path fill="#FFFFFF" d="M113.2,98H85.1v-3h25.6c0.2-1.2,0.3-2.3,0.3-3.5c0-12-9.8-21.8-21.8-21.8c-4.9,0-9.5,1.6-13.3,4.5L74,71.8
			c4.4-3.4,9.6-5.2,15.2-5.2c13.7,0,24.8,11.1,24.8,24.8c0,1.8-0.2,3.6-0.6,5.3L113.2,98z"/>
	</g>
	<g>
		<path fill="#FFFFFF" d="M89.4,63.9c-6.1,0-11-4.9-11-11s4.9-11,11-11s11,4.9,11,11S95.4,63.9,89.4,63.9z M89.4,45
			c-4.4,0-8,3.6-8,8s3.6,8,8,8s8-3.6,8-8S93.8,45,89.4,45z"/>
	</g>
	<g>
		<circle fill-rule="evenodd" clip-rule="evenodd" fill="#FFFFFF" cx="55.8" cy="54.9" r="9.5"/>
	</g>
	<g>
		<path fill="#FFFFFF" d="M55.8,65.9c-6.1,0-11-4.9-11-11s4.9-11,11-11s11,4.9,11,11S61.9,65.9,55.8,65.9z M55.8,47
			c-4.4,0-8,3.6-8,8s3.6,8,8,8s8-3.6,8-8S60.2,47,55.8,47z"/>
	</g>
</g>
</svg>
