<?xml version="1.0" encoding="utf-8"?>
<!-- Generator: Adobe Illustrator 18.0.0, SVG Export Plug-In . SVG Version: 6.00 Build 0)  -->
<!DOCTYPE svg PUBLIC "-//W3C//DTD SVG 1.1//EN" "http://www.w3.org/Graphics/SVG/1.1/DTD/svg11.dtd">
<svg version="1.1" id="Layer_1" xmlns="http://www.w3.org/2000/svg" xmlns:xlink="http://www.w3.org/1999/xlink" x="0px" y="0px"
	 width="145px" height="145px" viewBox="0 0 145 145" enable-background="new 0 0 145 145" xml:space="preserve">
<g>
	<g>
		<path fill-rule="evenodd" clip-rule="evenodd" fill="#8F05C2" d="M72.5,3.1c38.4,0,69.4,31.1,69.4,69.4
			c0,38.4-31.1,69.4-69.4,69.4c-38.4,0-69.4-31.1-69.4-69.4C3.1,34.1,34.1,3.1,72.5,3.1"/>
	</g>
	<g>
		<path fill="#FFFFFF" d="M72.5,132.8c-33.2,0-60.3-27-60.3-60.3s27-60.3,60.3-60.3c33.2,0,60.3,27,60.3,60.3
			S105.7,132.8,72.5,132.8z M72.5,15.4C41,15.4,15.4,41,15.4,72.5s25.6,57.1,57.1,57.1c31.5,0,57.1-25.6,57.1-57.1
			S104,15.4,72.5,15.4z"/>
	</g>
	<g>
		<path fill-rule="evenodd" clip-rule="evenodd" fill="#FFFFFF" d="M97.1,75.3c-0.9,0.1-1.8,0.5-2.4,1.1c-0.7,0.6-1.2,1.4-1.4,2.3
			l-0.4-2.5c-0.2-1.4-1.1-2.7-2.3-3.4c-1.3-0.7-2.8-0.8-4.1-0.2c-1.3,0.6-2.4,1.7-2.7,3.1L83.4,74c-0.2-1.2-0.8-2.3-1.8-3.1
			c-1-0.7-2.3-1.1-3.5-0.9c-0.9,0.1-1.8,0.6-2.5,1.2c-0.7,0.7-1.2,1.5-1.4,2.4l-2-13.8c-0.2-1.7-1.4-3.1-2.9-3.7
			c-1.6-0.6-3.3-0.4-4.7,0.7c-1.3,1-2,2.7-1.7,4.4l3.8,26.1l-0.4-0.6v0c-0.8-1-1.9-1.6-3.1-1.8c-1.2-0.1-2.5,0.2-3.5,1
			c-1,0.8-1.6,1.9-1.8,3.1c-0.1,1.2,0.2,2.5,1,3.5l12.4,15.7h0c0.3,0.3,0.6,0.7,1,0.9c2.6,2.7,6.4,3.9,10.1,3.4l12.9-1.9l-0.6,0.1
			c3.1-0.5,5.9-2.1,7.8-4.6c1.9-2.5,2.7-5.7,2.2-8.7l-2.6-18.1c-0.2-1.2-0.8-2.3-1.8-3.1c-1-0.7-2.3-1.1-3.5-0.9L97.1,75.3z"/>
	</g>
	<g>
		<path fill="#FFFFFF" d="M58.2,69.5c-10.7,0-19.5-8.7-19.5-19.5s8.7-19.5,19.5-19.5S77.7,39.3,77.7,50S69,69.5,58.2,69.5z
			 M58.2,33.8c-9,0-16.3,7.3-16.3,16.3s7.3,16.3,16.3,16.3S74.5,59,74.5,50S67.2,33.8,58.2,33.8z"/>
	</g>
	<g>
		<path fill-rule="evenodd" clip-rule="evenodd" fill="#FFFFFF" d="M59.4,55.9c0.1,0,0.2-0.1,0.3-0.1c0.3-0.1,0.5-0.3,0.7-0.6
			c0.2-0.2,0.4-0.5,0.5-0.8c0.1-0.3,0.2-0.6,0.2-1c0-0.3,0-0.6-0.1-0.9c-0.1-0.2-0.2-0.4-0.3-0.6l0,0c-0.1-0.2-0.4-0.3-0.7-0.5
			c-0.2-0.1-0.4-0.2-0.6-0.3V55.9z M57.2,43.1c-0.1,0-0.2,0.1-0.3,0.1c-0.3,0.1-0.5,0.3-0.7,0.5l0,0c-0.2,0.2-0.3,0.4-0.4,0.7
			c-0.1,0.2-0.1,0.5-0.1,0.8c0,0.3,0,0.6,0.1,0.8c0.1,0.2,0.2,0.4,0.3,0.6c0.2,0.2,0.4,0.3,0.6,0.5c0.1,0.1,0.3,0.1,0.4,0.2V43.1z
			 M57.2,60.3v-1.6c-0.4-0.1-0.7-0.1-1-0.2c-0.4-0.1-0.8-0.3-1.2-0.5c-0.4-0.2-0.7-0.4-1-0.7c-0.3-0.3-0.6-0.6-0.8-1v0
			c-0.3-0.4-0.5-0.9-0.6-1.3c-0.1-0.5-0.2-1-0.3-1.6l0-0.4l0.4-0.1l2-0.4l0.5-0.1l0.1,0.5c0.1,0.5,0.2,1,0.3,1.3
			c0.1,0.3,0.3,0.6,0.4,0.8l0,0c0.2,0.3,0.5,0.6,0.8,0.7c0.1,0.1,0.2,0.1,0.4,0.2v-5.4c-0.3-0.1-0.6-0.2-1-0.3
			c-0.4-0.2-0.9-0.4-1.3-0.7l0,0c-0.4-0.2-0.7-0.4-1-0.7c-0.3-0.3-0.5-0.6-0.7-1v0c-0.2-0.4-0.3-0.7-0.4-1.1
			c-0.1-0.4-0.1-0.8-0.1-1.3c0-0.8,0.1-1.5,0.4-2.2c0.3-0.7,0.7-1.2,1.3-1.7c0.4-0.3,0.9-0.6,1.4-0.8c0.4-0.2,0.9-0.3,1.4-0.3v-0.5
			v-0.5h0.5h1.2h0.5v0.5v0.5c0.5,0.1,0.9,0.2,1.3,0.3c0.5,0.2,1,0.5,1.4,0.8l0,0c0.5,0.4,0.9,0.9,1.2,1.5c0.3,0.6,0.5,1.2,0.6,1.9
			l0.1,0.5l-0.5,0.1l-2.1,0.3l-0.5,0.1l-0.1-0.5c-0.1-0.4-0.1-0.7-0.2-1c-0.1-0.3-0.2-0.5-0.4-0.6l0,0c-0.1-0.2-0.3-0.3-0.5-0.4
			c0,0-0.1-0.1-0.1-0.1V48c0.4,0.1,0.7,0.2,0.9,0.3c0.4,0.1,0.6,0.2,0.8,0.3l0,0c0.3,0.2,0.7,0.3,0.9,0.5l0,0
			c0.3,0.2,0.5,0.4,0.8,0.6l0,0c0.2,0.2,0.4,0.5,0.6,0.7l0,0c0.2,0.3,0.3,0.6,0.4,0.9v0c0.1,0.3,0.2,0.6,0.3,1h0
			c0.1,0.3,0.1,0.7,0.1,1c0,0.8-0.1,1.5-0.4,2.1c-0.2,0.6-0.6,1.2-1.1,1.8c-0.5,0.5-1.1,0.9-1.7,1.2c-0.5,0.2-1,0.4-1.6,0.4v1.6v0.5
			h-0.5h-1.2h-0.5V60.3z"/>
	</g>
</g>
</svg>
