<?xml version="1.0" encoding="utf-8"?>
<!-- Generator: Adobe Illustrator 18.0.0, SVG Export Plug-In . SVG Version: 6.00 Build 0)  -->
<!DOCTYPE svg PUBLIC "-//W3C//DTD SVG 1.1//EN" "http://www.w3.org/Graphics/SVG/1.1/DTD/svg11.dtd">
<svg version="1.1" id="Layer_1" xmlns="http://www.w3.org/2000/svg" xmlns:xlink="http://www.w3.org/1999/xlink" x="0px" y="0px"
	 width="145px" height="145px" viewBox="0 0 145 145" style="enable-background:new 0 0 145 145;" xml:space="preserve">
<style type="text/css">
	.st0{fill-rule:evenodd;clip-rule:evenodd;fill:#8E05C2;}
	.st1{fill:#FFFFFF;}
	.st2{fill-rule:evenodd;clip-rule:evenodd;fill:#FFFFFF;}
</style>
<g>
	<g>
		<path class="st0" d="M72.5,3.1c38.4,0,69.4,31.1,69.4,69.4c0,38.4-31.1,69.4-69.4,69.4c-38.4,0-69.4-31.1-69.4-69.4
			C3.1,34.1,34.1,3.1,72.5,3.1"/>
	</g>
	<g>
		<path class="st1" d="M72.5,132.8c-33.2,0-60.3-27-60.3-60.3c0-33.2,27-60.3,60.3-60.3c33.2,0,60.3,27,60.3,60.3
			C132.8,105.7,105.7,132.8,72.5,132.8z M72.5,15.4C41,15.4,15.4,41,15.4,72.5s25.6,57.1,57.1,57.1s57.1-25.6,57.1-57.1
			S104,15.4,72.5,15.4z"/>
	</g>
	<g>
		<path class="st1" d="M54.3,83c-11,0-19.4-3.8-19.4-8.9s8.3-8.9,19.4-8.9s19.3,3.8,19.3,8.9S65.3,83,54.3,83z M54.3,68.1
			c-9.4,0-16.4,3.1-16.4,5.9s7,5.9,16.4,5.9c9.4,0,16.3-3.1,16.3-5.9S63.6,68.1,54.3,68.1z"/>
	</g>
	<g>
		<path class="st1" d="M54.3,93c-11,0-19.3-3.8-19.3-8.9V74h3c0,2.8,7,5.9,16.3,5.9c9.4,0,16.4-3.1,16.4-5.9h3v10
			C73.6,89.1,65.3,93,54.3,93z M37.9,78.9V84c0,2.8,7,5.9,16.3,5.9c9.4,0,16.4-3.1,16.4-5.9v-5.1c-3.4,2.5-9.3,4-16.4,4
			C47.2,83,41.3,81.4,37.9,78.9z"/>
	</g>
	<g>
		<path class="st1" d="M54.3,102.8c-11,0-19.3-3.8-19.3-8.9v-10h3c0,2.8,7,5.9,16.3,5.9c9.4,0,16.4-3.1,16.4-5.9h3v10
			C73.6,98.9,65.3,102.8,54.3,102.8z M37.9,88.7v5.1c0,2.8,7,5.9,16.3,5.9c9.4,0,16.4-3.1,16.4-5.9v-5.1c-3.4,2.5-9.3,4-16.4,4
			C47.2,92.8,41.3,91.2,37.9,88.7z"/>
	</g>
	<g>
		<path class="st1" d="M90.7,93c-11,0-19.4-3.8-19.4-8.9V74h3c0,2.8,7,5.9,16.4,5.9s16.3-3.1,16.3-5.9h3v10
			C110.1,89.1,101.8,93,90.7,93z M74.4,78.9V84c0,2.8,7,5.9,16.4,5.9s16.3-3.1,16.3-5.9v-5.1c-3.4,2.5-9.3,4-16.3,4
			S77.8,81.4,74.4,78.9z"/>
	</g>
	<g>
		<path class="st1" d="M90.7,102.8c-11,0-19.4-3.8-19.4-8.9v-10h3c0,2.8,7,5.9,16.4,5.9s16.3-3.1,16.3-5.9h3v10
			C110.1,98.9,101.8,102.8,90.7,102.8z M74.4,88.7v5.1c0,2.8,7,5.9,16.4,5.9s16.3-3.1,16.3-5.9v-5.1c-3.4,2.5-9.3,4-16.3,4
			S77.8,91.2,74.4,88.7z"/>
	</g>
	<g>
		<path class="st1" d="M90.7,72.6c-11,0-19.4-3.8-19.4-8.9c0-5.1,8.3-8.9,19.4-8.9s19.3,3.8,19.3,8.9
			C110.1,68.8,101.8,72.6,90.7,72.6z M90.7,57.7c-9.4,0-16.4,3.1-16.4,5.9c0,2.8,7,5.9,16.4,5.9s16.3-3.1,16.3-5.9
			C107.1,60.9,100.1,57.7,90.7,57.7z"/>
	</g>
	<g>
		<path class="st1" d="M90.7,82.6c-11,0-19.4-3.8-19.4-8.9v-10h3c0,2.8,7,5.9,16.4,5.9s16.3-3.1,16.3-5.9h3v10
			C110.1,78.8,101.8,82.6,90.7,82.6z M74.4,68.6v5.1c0,2.8,7,5.9,16.4,5.9s16.3-3.1,16.3-5.9v-5.1c-3.4,2.5-9.3,4-16.3,4
			S77.8,71.1,74.4,68.6z"/>
	</g>
	<g>
		<path class="st1" d="M44.6,61.7c-0.2-1.1-0.2-2.2-0.2-3.3c0-12.1,9.8-21.9,21.9-21.9c6.9,0,13.3,3.2,17.5,8.7l-2.4,1.8
			c-3.6-4.8-9.1-7.5-15.1-7.5c-10.4,0-18.9,8.5-18.9,18.9c0,0.9,0.1,1.9,0.2,2.8L44.6,61.7z"/>
	</g>
	<g>
		<polygon class="st2" points="86.1,39.5 80.4,43 74.7,46.6 80.6,49.8 86.5,52.9 86.3,46.2 		"/>
	</g>
	<g>
		<path class="st2" d="M90.7,59.5c-4.6,0-8.3,1.4-8.3,3c0,1.7,3.7,3,8.3,3c4.6,0,8.3-1.4,8.3-3C99,60.9,95.3,59.5,90.7,59.5"/>
	</g>
	<g>
		<path class="st2" d="M54.3,69.9c-4.6,0-8.3,1.4-8.3,3c0,1.7,3.7,3,8.3,3c4.6,0,8.3-1.4,8.3-3C62.6,71.2,58.8,69.9,54.3,69.9"/>
	</g>
</g>
</svg>
