<?xml version="1.0" encoding="utf-8"?>
<!-- Generator: Adobe Illustrator 18.0.0, SVG Export Plug-In . SVG Version: 6.00 Build 0)  -->
<!DOCTYPE svg PUBLIC "-//W3C//DTD SVG 1.1//EN" "http://www.w3.org/Graphics/SVG/1.1/DTD/svg11.dtd">
<svg version="1.1" id="Layer_1" xmlns="http://www.w3.org/2000/svg" xmlns:xlink="http://www.w3.org/1999/xlink" x="0px" y="0px"
	 width="145px" height="145px" viewBox="0 0 145 145" enable-background="new 0 0 145 145" xml:space="preserve">
<g>
	<g>
		<path fill-rule="evenodd" clip-rule="evenodd" fill="#7E3FD8" d="M72.5,3.1c38.4,0,69.4,31.1,69.4,69.4s-31.1,69.4-69.4,69.4
			c-38.4,0-69.4-31.1-69.4-69.4S34.1,3.1,72.5,3.1"/>
	</g>
	<g>
		<path fill="#FFFFFF" d="M72.5,132.8c-33.2,0-60.3-27-60.3-60.3s27-60.3,60.3-60.3s60.3,27,60.3,60.3S105.7,132.8,72.5,132.8z
			 M72.5,15.4C41,15.4,15.4,41,15.4,72.5c0,31.5,25.6,57.1,57.1,57.1c31.5,0,57.1-25.6,57.1-57.1C129.6,41,104,15.4,72.5,15.4z"/>
	</g>
	<g>
		<path fill-rule="evenodd" clip-rule="evenodd" fill="#FFFFFF" d="M67,41.1l0.4,0c-0.4,0.4-0.4,1.2-0.4,1c0,0,0,0-0.1,0.1L67,41.1z
			 M54.1,42.5c-0.2-0.3-0.1-0.4-0.1-0.8l0.8-0.1C54.8,42.1,54.3,42.4,54.1,42.5z M55.7,41.6l4.1-0.3l0,0.8c-0.8,0.5-0.6,0.6-0.6,1.7
			c-0.1,1.1-0.2,1.3,0.5,1.9c0,2.5-0.5-0.5-0.5,3.2c0,2.1,0.6,0.2,0.6,2.4c-0.4,0.2-0.5,0.3-0.5,0.9c0,0.4,0.1,0.9,0.1,1.3
			c0,0.5,0,0.8,0.3,1.1C60,55,59.8,54.6,60,55c0.1,0.2,0.1,0.6,0.1,0.8c-0.6,0.6-0.5,0.6-0.3,1.6c0.1,0.6,0.1,1.4,0.4,1.7
			c0.4,0.3,0.3,0,0.4,0.6c0.3,1.5-0.6-0.3-0.1,2.7c0.4,2,1,0.8,1,2.2c0,0.4-0.2,0.2-0.3,0.7c-0.1,0.3,0.5,2.3,0.6,2.5
			c0.2,0.4,0.4,0.2,0.6,0.5c0.5,0.7-0.1,1.1-0.1,1.6c0,0.3,0.4,1.3,0.5,1.7c0.4,1.4,0.6,0.5,1,1.2c0.5,0.9-0.2,0.8,0,1.7
			c0.1,0.4,0.4,1.2,0.6,1.6c0.4,1.2,0.7,0.4,1,1.1c0.5,1-0.3,0.6,0.1,1.7c0.2,0.5,0.5,1,0.6,1.5c-1.6,0.1-0.8-0.1-1.6-0.5
			c-0.4-0.2-0.4,0-0.6-0.4c-0.3-0.5,0.3-0.9-1.1-3.1c-0.4-0.7-0.6-0.1-1-0.7c-0.3-0.5,0-0.9,0-1.3c0-0.3-0.5-1.2-0.6-1.5
			c-0.5-1.1-0.7-0.6-1-1.1c-0.6-0.8,0.1-0.8,0-1.5c-0.1-0.4-0.4-1.1-0.5-1.5c-0.4-1.3-0.6-0.4-1-1.2c-0.5-0.9,0.3-0.6,0.1-1.5
			c-0.6-3.1-1.1-1.8-1.4-2.8c-0.2-0.8,0.4-0.5,0.2-1.5c-0.1-0.4-0.3-1.4-0.4-1.7c-0.3-0.9-0.6,0.1-0.8-1.4c0.1-0.6,0.5,0.5,0.2-1.9
			c-0.1-1.1,0-1.2-0.8-1.6c-0.1-0.8-0.2-0.6,0.2-1.2c0.3-0.4,0.1-1.9,0-2.5C56,51,55.9,51,55.5,50.8l-0.1-0.9
			c0.7-0.6,0.5-0.7,0.5-1.7c0-1.2,0.2-1.1-0.5-1.7c0-0.2,0-0.5,0-0.7c0.1-0.4,0-0.1,0.3-0.4C56,45,56,44.7,56,44.2
			c0-0.4,0.1-1.1,0.1-1.4C56,41.8,55.6,42.6,55.7,41.6z M60.7,41.3l1,0c0,1,0.1,0.6-0.4,1c-0.1,0.1-0.2,0.2-0.3,0.4
			c-0.2-0.1-0.2-0.2-0.5-0.3L60.7,41.3z M69,80.1c0.1,0.1,0.1-0.2,0.1,0.3l-0.4,0.1L68.6,80c-0.1-0.3-0.6-1.9-0.7-2.1
			c-0.3-0.5-0.5-0.2-0.7-0.6c0,0-0.2-0.5-0.2-0.5c-0.1-0.4,0-0.2,0.1-0.5c0.3-0.6-0.2-1.6-0.3-2.2c-0.2-0.6-0.1-0.6-0.5-0.8
			c0,0-0.5-0.1-0.5-0.9c0-0.9,0.6,0.5,0-2.2c-0.1-0.3-0.2-0.8-0.3-1c-0.4-0.5-0.5,0-0.7-0.8c-0.3-1.4,0.8,0.3-0.1-3.3
			c-0.2-0.9-0.7-0.3-0.8-1.4c0-0.6-0.1-0.2,0.2-0.6c0.3-0.5,0-2-0.1-2.6c-0.2-0.8-0.5-0.1-0.7-1c-0.2-1.1,0.2-0.4,0.4-1.2
			c0.1-0.3-0.1-1.1-0.1-1.4c0-0.5,0-1-0.3-1.3c-0.5-0.5-0.4-0.2-0.5-1.2c0.2-0.2,0.4-0.3,0.5-0.7c0-0.3,0-0.9-0.1-1.2
			c-0.1-1.2,0.1-1-0.6-1.6l0-0.9c0.7-0.5,0.5-0.7,0.5-2.3c0-0.6,0.1-0.8-0.3-1.1c-0.4-0.4-0.3-0.4-0.3-1.1c0.8-0.5,0.5-1,0.6-2.2
			c0-0.5,0.1-0.8-0.2-1.1c-0.3-0.3-0.2,0-0.3-0.4c0-0.2,0-0.4,0.1-0.6l3.7-0.1c0,0.2,0,0.6-0.1,0.8c-0.2,0.7-0.8-0.1-0.7,2.9
			c0,0.6,0.2,0.6,0.5,0.9c0,0.7,0.1,0.7-0.3,1.1c-0.5,0.4-0.3,1.9-0.3,2.5c0,0.8,0.5,0.7,0.5,0.9c0,0.6,0.1,0.7-0.2,1.1
			c-0.4,0.4-0.3,0.4-0.3,1.1c0.1,2.8,0.2,1.6,0.5,2.3c0.2,0.4,0.1,0.9-0.2,1.2c-0.3,0.4-0.3,0.6-0.2,1.2c0.1,1.1-0.1,1.7,0.7,2.1
			c0.1,1.5,0,0.8-0.3,1.4c-0.2,0.4,0,2.7,0.3,3c0.3,0.3,0.4-0.1,0.5,1.2c-0.6,0.7-0.4,0.9-0.3,1.9c0.3,2.3,0.8,0.9,0.9,2.2
			c0.1,0.9-0.5,0.3-0.3,1.5c0.4,3.3,0.8,1.7,1.1,2.8c0.2,0.8-0.1,0.8-0.1,0.9c-0.3,0.6,0.2,2.7,0.5,3c0.6,0.6,0.5,1,0.4,1.8
			C68.8,79.5,69,79.6,69,80.1z M67.9,43.3c-0.2-0.2-0.1-0.9,0.1-1.1c0.1,0.2,0.2,0.1,0.1,0.6C68.1,43.3,68.2,43.2,67.9,43.3z
			 M47.7,43.8c-0.1-0.2-0.2-0.6-0.1-0.9c0-0.2,0-0.1,0.1-0.2C48,42.9,48.1,43.7,47.7,43.8z M46.6,44.1c-0.4-0.2-0.1-1-0.1-1.1
			c0.1,0,0.4-0.1,0.2,0.9C46.7,44,46.7,44,46.6,44.1z M55,44.3c-0.2-0.2-0.1-0.9,0.1-1.1c0.1,0.1,0.1-0.1,0.1,0.3
			C55.3,44.2,55.2,44.2,55,44.3z M61.9,44.2c-0.1-0.3,0-0.8,0.2-0.9c0.1,0.3,0.1,0.6,0.1,0.9c0,0.3,0,0.1-0.1,0.2
			C61.8,44.2,62,44.5,61.9,44.2z M66.5,44.5c-0.2-0.2-0.1,0.2-0.2-0.3c0-0.2,0-0.6,0.2-0.9c0.1,0.2,0.1-0.2,0.1,0.3L66.5,44.5z
			 M60,44.6c-0.1-0.2-0.1-0.4-0.1-0.7c0-0.5-0.1-0.4,0.3-0.4C60.2,44.5,60.3,44.4,60,44.6z M53.5,44.7c-0.1-0.3-0.2-0.8,0-1.1
			c0.3,0.1,0.2,0.1,0.2,0.6C53.7,44.7,53.7,44.5,53.5,44.7z M66.8,46.7c0-0.9-0.1-0.9,0.2-1.2c0.4-0.4,0.3-0.4,0.4-1.2
			c0.1,0.1,0.2-0.1,0.2,0.4c0,0.9-0.4,0.6-0.5,1.1C66.9,46.2,66.9,46.5,66.8,46.7z M47,46.2c-0.1-1-0.1-0.9,0.3-1.1l0.1,0.8
			C47.4,46.2,47.4,46.1,47,46.2z M54,46.9l0-1c0.2-0.2,0.4-0.4,0.6-0.5l0,1L54,46.9z M61.7,50.1c0.1,2.4-0.7-0.3-0.4,3.4
			c0.1,1.3,0.5,0.7,0.7,1.3c0.3,1-0.3,0.7-0.4,1.6L61.3,56c-0.1-0.1-0.2-0.2-0.4-0.3c0-0.2-0.1-0.6-0.1-0.7c0.1-0.8,0.5,0.1,0.4-1.7
			c0-0.4,0-1-0.1-1.3c-0.2-0.8-0.5-0.2-0.6-1c-0.1-0.9,0.2-0.6,0.4-1.1c0.1-0.1,0.2-2.4-0.2-2.8c-0.4-0.4-0.3,0-0.3-1.3
			c0.5-0.3,0.4-0.3,0.6-0.8c0.2,0.4,0.1,0.4,0.5,0.5c0,0.2,0,0.5,0,0.7c-0.1,1-0.5-0.1-0.5,1.6C61.1,48.8,60.9,49.7,61.7,50.1z
			 M67.7,46.6c0.1,0.2,0.1,0,0.2,0.2c0,0,0,0.3,0,0.3c0,0.4-0.1,0.4-0.2,0.5C67.5,47.3,67.6,46.9,67.7,46.6z M46.7,47.3
			c0.1,0.2,0.1,0.2,0.1,0.5c0,0,0,0.3,0,0.3c-0.1,0.2,0,0.1-0.1,0.3l-0.2-0.6C46.5,47.3,46.5,47.5,46.7,47.3z M47.9,47.1
			c0.2,0.2,0.3,0.9,0.1,1.1C47.7,48.1,47.8,47.3,47.9,47.1z M54.9,47.6c0.3,0.1,0.2,0,0.2,0.5c0,0.5,0.1,0.4-0.2,0.5
			C54.8,48.4,54.8,47.9,54.9,47.6z M53.6,48c0.3,0.1,0.2,0,0.2,0.5c0,0.7-0.1,0.5-0.1,0.6C53.5,48.9,53.5,48.3,53.6,48z M62,47.7
			c0.1,0.1,0.3,0,0.2,0.8c0,0.4,0,0.2-0.1,0.3c-0.3-0.2-0.2,0-0.2-0.5C61.9,48,61.9,48,62,47.7z M60,47.9c0.1,0.1,0.1,0,0.1,0.2
			c0.1,0.3,0.1,0.7-0.1,0.9c-0.2-0.2-0.2-0.6-0.2-0.9C60,47.8,59.9,48.1,60,47.9z M66.4,47.9c0.1,0.2,0.2,1-0.1,1.2
			c-0.1-0.2-0.1-0.3-0.1-0.6C66.2,48,66.1,48,66.4,47.9z M47.6,49.4c0.2,0.3,0.4,1.4-0.2,1.1c-0.2-0.1-0.2-0.4-0.2-0.6
			C47.2,49.4,47.2,49.4,47.6,49.4z M54.6,50.1c0.1,1,0.1,0.7-0.2,1C54.1,50.6,54.2,50.3,54.6,50.1z M67.6,50.9
			c0.2,0.2,0.1-0.1,0.1,0.2c0,0,0,0.3,0,0.3c0,0.4-0.1,0.4-0.2,0.6C67.4,51.7,67.4,51.2,67.6,50.9z M47,51.7
			c0.3,0.1,0.2-0.1,0.3,0.4c0.1,0.3,0.1,0.4-0.1,0.6C47,52.6,46.9,51.9,47,51.7z M48.3,51.5c0,0,0.4-0.1,0.3,0.7
			c0,0.3,0,0.2-0.1,0.4C48.4,52.3,48.3,52,48.3,51.5z M55.1,52c0.1,0.1,0.1,0.1,0.2,0.5c0.1,0.5,0,0.5-0.1,0.6
			C55,52.8,55,52.3,55,52.2C55.1,52.1,55.1,52.1,55.1,52C55.1,52.1,55.1,52,55.1,52z M54,52.5c0.3,0.1,0.2,0.1,0.3,0.6
			c0.1,0.5,0.1,0.4-0.2,0.5C53.9,53.3,53.9,52.7,54,52.5z M60.1,52.5c0.1,0,0.3,0,0.3,0.8c0,0.3,0,0.2-0.2,0.4
			c0-0.1-0.1-0.1-0.1-0.2L60.1,52.5z M62.2,52.2c0.2,0.1,0.3,0.2,0.2,0.8c0,0.4,0,0.2-0.1,0.3c-0.2-0.2-0.1-0.1-0.2-0.5
			C62.1,52.2,62.1,52.4,62.2,52.2z M66.4,52.4c0.1,0.3,0.2,0.9,0,1.2C66.1,53.3,66.1,52.7,66.4,52.4z M47.9,53.8
			c0.6-0.3,0.7,0.5,0.6,1c-0.4,0.1-0.5,0.1-0.6-0.3c0,0-0.1-0.3-0.1-0.3C47.8,53.7,47.9,53.8,47.9,53.8z M54.9,54.6
			c0,0.1,0.1,0.1,0.1,0.3c0,0.5,0,0.3-0.1,0.4c-0.1-0.1-0.1-0.1-0.2-0.4C54.7,54.6,54.9,54.7,54.9,54.6z M47.8,55.9
			c0.1,0.1,0.1,0,0.1,0.2c0,0.1,0.1,0.2,0.1,0.3c0.2,0.7,0,0.4,0,0.5c-0.1-0.1-0.2,0.1-0.3-0.5c0,0,0-0.3,0-0.3
			C47.7,55.8,47.7,56.1,47.8,55.9z M49.6,56.8l-0.2,0.1l-0.1-0.3c0-0.6-0.3-0.5,0-0.8C49.5,56,49.5,56.3,49.6,56.8z M67.6,55.3
			c0.3,0.1,0.2,0,0.2,0.5c0,0.5,0.1,0.5-0.2,0.6C67.5,56.1,67.4,55.5,67.6,55.3z M55.6,56.3c0.2,0.1,0.2-0.1,0.3,0.5
			c0,0.3,0.1,0.4,0,0.6C55.6,57.2,55.6,56.7,55.6,56.3z M54.6,56.9c0.3,0.2,0.4,0.9,0.2,1.1L54.6,56.9z M60.6,57
			c0.2,0.2,0.3,0.8,0.1,1.2c-0.2-0.2-0.3-0.6-0.2-0.9C60.6,56.7,60.5,57.2,60.6,57z M62.6,56.7c0.2,0.2,0.2,0.6,0.2,0.9
			c0,0.5,0,0.1-0.1,0.3c-0.2-0.1-0.3-0.4-0.2-0.8C62.5,56.5,62.4,56.9,62.6,56.7z M66.5,57c0.3,0.1,0.2,0,0.2,0.5
			c0,0.4,0.1,0.5-0.1,0.7C66.3,58,66.3,57.2,66.5,57z M48.8,57.9l0.6,0.1c0.1,0.3,0.2,0.7,0.2,1C48.7,59,48.7,58.3,48.8,57.9z
			 M61.9,58.6c0.4,0.8,0.5-0.1,0.6,1.4c-0.1,0.2-0.1,0.2-0.3,0.3l-0.2,0.3c-0.2-0.3-0.2-0.3-0.6-0.4c0-0.3-0.2-0.7-0.1-0.9l0.4-0.6
			C61.8,58.8,61.8,58.7,61.9,58.6C61.9,58.7,61.9,58.7,61.9,58.6z M50.4,60c0.2,0.2,0.4,0.8,0.3,1.1c-0.3-0.1-0.2-0.1-0.3-0.5
			C50.3,60.2,50.2,60.2,50.4,60z M48.9,60.1c0.3,0.2,0.4,0.8,0.3,1c-0.3-0.1-0.2,0-0.3-0.4C48.8,60.4,48.7,60.3,48.9,60.1z
			 M67.8,59.6c0.1,0.2,0.1,0.2,0.1,0.5c0,0,0,0.3,0,0.3c-0.1,0.2-0.1,0.1-0.1,0.3c-0.1-0.1-0.1-0.1-0.1-0.3
			C67.6,60,67.6,59.8,67.8,59.6z M63.1,61.2c0.2,0.1,0.3,0.1,0.3,0.8l-0.1,0.4C63,62.1,63,61.4,63.1,61.2z M61.3,61.5
			c0.3,0.1,0.4,0.4,0.3,0.8c0,0.5,0.1,0.1-0.1,0.3C61.3,62.4,61.1,61.7,61.3,61.5z M50.9,63c0.1,0.1,0.2-0.1,0,0.3l-0.2-0.1L50.2,63
			l-0.3-0.9l0.8,0.2L50.9,63z M66.9,61.5c0.2,0.3,0.3,0.9,0.1,1.2C66.7,62.5,66.7,61.8,66.9,61.5z M62.2,63.7
			c0.1-0.2,0.2-0.2,0.3-0.4c0.2,0.1,0.4,0.2,0.6,0.3c0.1,0.5,0.3,1.3-0.3,1.2C62.3,64.8,62.3,64.2,62.2,63.7z M51.7,64.1
			c0.2,0.1,0.1-0.1,0.4,0.5c0.1,0.4,0.2,0.3,0,0.6c-0.2-0.1-0.1,0.2-0.3-0.5C51.8,64.4,51.6,64.3,51.7,64.1z M50.2,64.3
			c0.2,0.1,0.4,0.4,0.5,0.7c0.1,0.4,0,0.1-0.1,0.3c-0.2-0.2-0.2-0.2-0.3-0.5C50.1,64.3,50.2,64.4,50.2,64.3z M68,64
			c0,0,0.3-0.1,0.2,0.8c-0.1,0.5,0,0.1-0.1,0.3c-0.1-0.1-0.1,0-0.1-0.2c0,0,0-0.2,0-0.2c0,0,0-0.3,0-0.3L68,64C68,64,68,64,68,64z
			 M63.8,65.7c0.2,0.1,0.2-0.1,0.3,0.5c0.1,0.3,0.1,0.4,0,0.6c-0.3-0.1-0.2-0.1-0.3-0.5C63.8,66,63.7,65.8,63.8,65.7z M62.2,65.9
			c0.3,0.1,0.2,0,0.3,0.5c0.2,0.8,0.1,0.5,0,0.6C62.2,66.8,62.1,66.1,62.2,65.9z M51.5,66.2c0.2,0,0.7,0.2,0.8,0.3
			c0.1,0.1,0.3,0.6,0.3,0.9C51.8,67,51.8,67.2,51.5,66.2z M53.5,68.1c0.3,0.1,0.5,0.6,0.5,1c-0.3-0.1-0.2,0-0.4-0.4
			C53.4,68.4,53.3,68.3,53.5,68.1z M63.4,67.8c0.6,0.2,0.5,0.1,0.6,0.7c0.2,0.8,0.1,0.7-0.6,0.6C63.3,68.2,63.1,68.2,63.4,67.8z
			 M51.9,68.3c0.2,0.2,0.5,0.7,0.5,0.7c0.1,0.4,0,0.1-0.1,0.3C52.1,69.1,51.7,68.5,51.9,68.3z M68.5,68.3c0.2,0.3,0.3,0.8,0,1.1
			C68.4,69.1,68.2,68.6,68.5,68.3z M53.3,70.1c0.8,0.4,0.9,0.1,1.1,1C53.6,70.9,53.8,71.1,53.3,70.1z M64.8,70l0.2,0.5
			c0.2,0.8,0,0.5,0,0.6c-0.2-0.2-0.3-0.6-0.3-0.8C64.7,69.8,64.7,70.2,64.8,70z M63.4,70.3c0.2,0.1,0.4,0.5,0.4,0.8
			c0,0.5,0,0.1-0.1,0.3c-0.1-0.1,0,0.1-0.2-0.2c0,0-0.1-0.3-0.1-0.3C63.4,70.5,63.3,70.4,63.4,70.3z M68,70.6
			c0.4,0.2,0.4,0.9,0.2,1.1C68,71.5,67.9,70.8,68,70.6z M55.4,72.1c0.4-0.1,0.2-0.1,0.4,0.3c0.1,0.3,0.2,0.3,0.2,0.6
			C55.7,72.9,55.5,72.6,55.4,72.1z M53.9,72.1c0.4,0.1,0.2,0.1,0.4,0.4c0.2,0.3,0.2,0.2,0.2,0.6C54.1,73,53.9,72.4,53.9,72.1z
			 M64.5,72.3c0.6,0.1,0.5,0.4,0.7,1c-0.5-0.1-0.3,0-0.5-0.4C64.6,72.7,64.6,72.6,64.5,72.3z M69,72.7c0.1,0.1,0.1,0,0.1,0.2
			l0.1,0.8C69,73.6,69,73.8,69,73.3C68.9,72.9,68.9,73,69,72.7z M55.6,74.2c0.8,0.1,0.6-0.2,0.9,0.5l-0.6,0L55.6,74.2z M64.8,74.5
			c0.2,0.1,0.4,0.6,0.4,0.9c0,0.5,0,0.1-0.1,0.2C65.1,75.6,64.6,74.8,64.8,74.5z M66,74.4c0.2,0.2,0.3,0.7,0.4,1.1
			C66,75.4,65.8,74.6,66,74.4z M68.9,75.1c0.1,0.3,0.2,0.5,0.1,0.9c-0.2-0.2-0.2-0.2-0.2-0.5C68.7,75,68.7,75.1,68.9,75.1z
			 M57.6,75.8c0.4,0,0.3,0,0.5,0.3c0.1,0.2,0.2,0.3,0.3,0.6C58,76.7,58,76.5,57.6,75.8z M56.2,75.8c0.4,0.1,0.6,0.6,0.7,0.7
			c0.1,0.4,0.1,0.1-0.1,0.3C56.5,76.6,56.2,76.2,56.2,75.8z M59.5,80.1c-0.3,0-0.3,0-0.5-0.2C58.2,78.9,59.2,79.3,59.5,80.1z
			 M60.3,79.4c0.1,0,0.8,0.7,0.6,0.9c-0.2,0.2-0.3-0.2-0.4-0.3C60,79.4,60,79.5,60.3,79.4z M65.9,81.7c2.3-0.2,1.4,0.2,1.4,1
			c0,0.3,0.3,0.6,0.4,1C65.3,83.6,66.7,82.9,65.9,81.7z M68.8,81.7l0.1-0.1c0.8-0.2,0.8,0.2,0.9,0.6c0.1,0.4,0.3,1,0.2,1.3
			c-0.2-0.3-0.3-0.7-0.4-1.1C69.3,81.8,69.4,82,68.8,81.7z M45.6,82.5l2.5-0.2l0,0.8c-0.5,0-1-0.1-1.4-0.1
			C45.5,82.8,45.9,82.7,45.6,82.5z M61.6,82.6c0.4,0.1,0.1-0.1,0.4,0.4c0.1,0.2,0.2,0.2,0.3,0.5C62.1,83.4,61.4,82.9,61.6,82.6z
			 M56.6,81.9l0.1,1.5c-0.8,0-1.3,0.1-1.9-0.3c-0.8-0.5-0.9,0.1-1.5,0.1c-0.1,0-3.7,0-3.9-0.3c-0.1-0.2-0.1-0.7,0.1-0.8
			c0.1-0.1,0.8-0.1,1-0.1C52,82,55.2,81.8,56.6,81.9z M57.8,81.8c0.4,0,0.9,0,1.4,0c0.2,0,0.4,0,0.6,0c1.2,0,0.3,0.6,1,1.3
			c0.2,0.3,0.1,0,0.3,0.4c-0.8,0-1.6,0-2.4,0C58,83.5,57.7,83.8,57.8,81.8z M68.6,83.1l0.2,0.1c0.3,0.5,0.1,0.4,0.1,0.4L68.6,83.1z
			 M45,84l3.3,0.3l0.7,7.1l-3.1,0.4L45,84z M68.1,84.9c0.6,0.1,0.3,0.1,0.7,0.3c0.5,0.3,0.3-0.1,0.5,0.4c0.2,0.5,0.2,0.7,0,1.1
			l-0.1,0.2c0,0,0,0.1,0,0.1c0,0,0,0,0,0.1c-0.6-0.3-0.2-0.5-0.4-1.1C68.6,85.8,68.2,85,68.1,84.9z M70,84.9c0.2,0,0.5-0.2,0.5,0.4
			c0,0.3,0,0.2-0.1,0.3L70,84.9z M54.5,84.6l2.2,0.1l0.8,6.2L55.3,91C55.1,90.4,54.6,85.5,54.5,84.6z M58,84.7l4.9,0.1l0.4,5.9
			l-4.6,0.1C58.5,90.3,58.1,85.7,58,84.7z M67,85.2c0.4,0.2,0.4,0.1,0.4,0.5C67,85.5,67.1,85.4,67,85.2z M49.5,84.4l3.8,0.2l0.8,6.5
			l-4,0.3C49.9,89.2,49.5,86.5,49.5,84.4z M66.7,86.5c0,0,0.3-0.3,0,0.2C66.7,86.7,66.4,86.6,66.7,86.5z M65.5,87.7
			c0.4,0,0.4-0.1,0.7,0c0.8,0.4,0.2,0.9,1.1,1.6c0.3,0.3,0.6,0.5,1,0.8c0.6,0.5,0.8,0.2,1.4,0.5c-0.3,0.2-0.9,0.1-1.4,0.1l-2.6,0
			L65.5,87.7z M58.9,92.1l4.6-0.1l0.2,1.8l-4.6-0.1L58.9,92.1z M65.8,92l4.9-0.1l0,2l-4.7,0L65.8,92z M48.5,92.8
			c0.3-0.1,0.3-0.1,0.7-0.1l0.1,0.4c-0.3,0.1-0.2,0.1-0.5,0c-0.4,0-0.8,0-1.2-0.2L48.5,92.8z M50.3,92.6l3.9-0.3l0.2,0.6
			c0,0.2,0,0.4,0.1,0.5c-0.5,0.1-2.8-0.1-3.6-0.2C50.2,93.3,50.3,93.3,50.3,92.6z M55.5,92.3l2.3-0.1l0.2,1.5l-2.3-0.1L55.5,92.3z
			 M46.1,94l3.3,0.4c1,4.7,1.3,3.6,1.6,4.5c-1.3,0.1-2.4,0.4-3.6,0.5C46.7,98.6,46.3,95.5,46.1,94z M50.6,94.5l4,0.3l0.8,3.8
			c-1.4,0.1-2.9,0.3-3.7-0.7C51.2,97.4,50.7,95.6,50.6,94.5z M55.9,94.9l2.3,0.1l0.8,3.5l-2.3,0.2L55.9,94.9z M59.4,95
			c1.3,0,2.9,0,4.2,0.1c0.6,0,0.4,0.2,0.7,1.3c0.1,0.5,0.5,1.2,0.6,1.5l-4.8,0.4L59.4,95z M66.2,95.2l3.8,0l0,1.5
			c-0.8,0.4-2.2,0.9-3.3,0.8C66.5,97,66.3,95.9,66.2,95.2z M59.6,100.9l-2.1,0.3c-0.1-0.4-0.4-0.9-0.4-1.4l2.4-0.1
			C59.3,101,59.3,100.2,59.6,100.9z M49.2,100.5c0.5-0.2,5.8-0.6,6.6-0.6l0.4,1.2C55.1,101.1,49.9,100.8,49.2,100.5z M70.1,101.4
			c-0.3,0.2-0.4,0.1-0.8,0.1c0.1-0.1,0.3-0.2,0.4-0.2C70.2,101.1,70,101.2,70.1,101.4z M69.1,67.5c-0.1-0.2,0,0-0.2-0.2
			c-0.1-0.1-0.1-0.1-0.2-0.2l-0.1-0.7c0.1-0.5,0.5-0.2,0.4-1.5c0-0.4-0.1-0.9-0.1-1.3c-0.1-0.7-0.2-0.5-0.6-0.8l-0.1-0.9
			c0.7-0.3,0.5-1.1,0.4-2c-0.1-2.1-0.6-0.7-0.6-1.8c0-0.9,0.6-0.2,0.5-1.9c0-0.4,0-0.9,0-1.2c-0.1-0.5-0.2-0.5-0.5-0.7
			C68,52,68.6,54,68.6,51.9c0-3-0.1-1.4-0.5-2.3c-0.3-0.7,0.3-1,0.3-1c0.3-0.3,0.3-0.6,0.3-1.1c0-0.4,0.1-0.8,0-1.2
			c0-0.7-0.1-0.6-0.5-0.9c0-1.7,0.6-0.4,0.7-2c0.1-1.3,0.3-1.6-0.3-2.3l2.1,0c0.1,8.7,0,18,0,26.9c0,1.6,0.1,7.9-0.1,9
			c-0.2-1-0.1-0.7-0.4-1c-0.9-0.8,0.1-0.9-0.1-2.4c-0.1-0.4-0.1-1-0.2-1.4c-0.2-0.7-0.5-0.3-0.7-0.9c-0.3-0.8,0.1-0.7,0.3-1.1
			c0.1-0.3-0.1-1.7-0.1-2.1c0-0.1,0-0.2-0.1-0.3C69.1,67.3,69.3,67.5,69.1,67.5z M67.6,66l0.1,1.2c-0.4,0-0.3-0.2-0.3-0.6l-0.1-0.5
			c0,0,0.1-0.1,0.1-0.1C67.3,66.1,67.5,66,67.6,66z M59.3,77.5c0.1-0.7,0.3-1-0.4-1.4c-0.1-0.3,0-0.1-0.2-0.4
			c-1-1.6-0.9-0.8-1.5-1.3c0,0-0.3-0.4-0.3-0.4c-0.2-0.5,0.2-0.4,0-1c-0.1-0.2-0.8-1.5-1-1.8c-0.4-0.6-0.5-0.1-0.9-0.5
			C54.7,70.1,55,70,55,69.5c0.1-0.4-0.6-1.5-0.8-2c-0.3-0.7-0.1-0.3-0.7-0.6c-0.3-0.1-0.5-0.6-0.4-0.9c0.2-1,0.4,0.1-0.4-2.1
			c-0.2-0.4-0.2-0.7-0.5-0.9c-0.5-0.3-0.5,0-0.7-0.8c-0.2-0.9,0.6,0.3-0.1-2c-0.7-2.3-0.6-0.8-1.1-1.7c-0.6-1.3,0.7,0.2-0.3-3.3
			c-0.2-0.7-0.4-0.4-0.7-0.8c0-0.1-0.1-0.4-0.1-0.5c-0.1-1.3,0.7,0.8,0.1-2.9c-0.1-0.8-0.3-0.5-0.6-0.8c-0.1-0.2-0.3-0.6,0-1
			c0.4-0.6,0.3-0.4,0.3-1.2c-0.1-1,0.1-1.8-0.7-2.1c0-0.6-0.1-0.8,0.1-1c0.8-0.7,0.2-1.1,0.4-2.8l4.4-0.4c0,1.5-0.6-0.1-0.6,2.1
			c0,0.4,0,1,0,1.3c0.1,0.6,0.3,0.5,0.6,0.8c0.1,1.3,0,0.6-0.4,1.2c-0.2,0.4-0.1,2.5,0.2,2.8c0.3,0.3,0.3,0.1,0.4,0.4
			c0.1,0.2,0.1,0.6,0.1,0.8c-0.6,0.8-0.5,0.7-0.3,1.8c0.1,1,0,1.3,0.8,1.7c0,0.3,0.2,0.7,0.1,0.9c-0.1,0.3-0.7,0.3,0.1,2.8
			c0.2,0.7,0.9,0.4,0.9,1.5c0,0.5-0.6,0-0.1,1.7c0.2,0.6,0.2,1.4,0.7,1.7c0.4,0.3,0.4,0,0.5,0.6c0.2,0.7,0,0.4-0.1,0.9
			c-0.2,0.5,0.3,1.3,0.4,1.8c0.4,1.4,0.7,0.7,1,1.3c0.6,1-0.7,0.9,0.8,3.5c0.3,0.6,1.1,0.3,1.1,1.3c0,0.8-0.5,0.1,0.3,1.8
			c0.3,0.6,0.3,1.1,1,1.4c0.9,0.3,0.4,1,0.6,1.8c0.1,0.3,0.9,1.9,1.4,2.1c0.5,0.2,0.5-0.1,0.7,0.5l-1.1,0.1c-0.4-0.7-1.2-2.1-2-2.3
			C59.4,78,59.8,77.9,59.3,77.5z M58.3,78.1c-0.1-0.4,0.1-0.2,0.5-0.2c0,0.4,0,0.1-0.1,0.2L58.3,78.1z M78,41.1l-0.4,0
			c0.4,0.4,0.4,1.2,0.4,1c0,0,0,0,0.1,0.1L78,41.1z M90.9,42.5c0.2-0.3,0.1-0.4,0.1-0.8l-0.8-0.1C90.2,42.1,90.7,42.4,90.9,42.5z
			 M89.3,41.6l-4.1-0.3l0,0.8c0.8,0.5,0.6,0.6,0.6,1.7c0.1,1.1,0.2,1.3-0.5,1.9c0,2.5,0.5-0.5,0.5,3.2c0,2.1-0.6,0.2-0.6,2.4
			c0.4,0.2,0.5,0.3,0.5,0.9c0,0.4-0.1,0.9-0.1,1.3c0,0.5,0,0.8-0.3,1.1C85,55,85.2,54.6,85,55C85,55.2,85,55.6,85,55.8
			c0.6,0.6,0.5,0.6,0.3,1.6c-0.1,0.6-0.1,1.4-0.4,1.7c-0.4,0.3-0.3,0-0.4,0.6c-0.3,1.5,0.7-0.3,0.1,2.7c-0.4,2-1,0.8-1,2.2
			c0,0.4,0.2,0.2,0.3,0.7c0.1,0.3-0.5,2.3-0.6,2.5c-0.2,0.4-0.4,0.2-0.6,0.5c-0.5,0.7,0.1,1.1,0.1,1.6c0,0.3-0.4,1.3-0.5,1.7
			c-0.4,1.4-0.6,0.5-1,1.2c-0.5,0.9,0.2,0.8,0,1.7c-0.1,0.4-0.4,1.2-0.6,1.6c-0.4,1.2-0.7,0.4-1,1.1c-0.5,1,0.3,0.6-0.1,1.7
			c-0.2,0.5-0.5,1-0.6,1.5c1.6,0.1,0.8-0.1,1.6-0.5c0.4-0.2,0.4,0,0.6-0.4c0.3-0.5-0.3-0.9,1.1-3.1c0.4-0.7,0.6-0.1,1-0.7
			c0.3-0.5,0-0.9,0-1.3c0-0.3,0.5-1.2,0.6-1.5c0.5-1.1,0.7-0.6,1-1.1c0.6-0.8-0.1-0.8,0-1.5c0.1-0.4,0.4-1.1,0.5-1.5
			c0.4-1.3,0.6-0.4,1-1.2c0.5-0.9-0.3-0.6-0.1-1.5c0.6-3.1,1.1-1.8,1.4-2.8c0.2-0.8-0.4-0.5-0.2-1.5c0.1-0.4,0.3-1.4,0.4-1.7
			c0.3-0.9,0.6,0.1,0.8-1.4c-0.1-0.6-0.5,0.5-0.2-1.9c0.1-1.1,0-1.2,0.8-1.6c0.1-0.8,0.2-0.6-0.2-1.2c-0.3-0.4-0.1-1.9,0-2.5
			c0.1-0.6,0.2-0.5,0.6-0.7l0.1-0.9c-0.7-0.6-0.5-0.7-0.5-1.7c0-1.2-0.2-1.1,0.5-1.7c0-0.2,0-0.5,0-0.7c-0.1-0.4,0-0.1-0.3-0.4
			C89,45,89,44.7,89,44.2c0-0.4-0.1-1.1-0.1-1.4C89,41.8,89.4,42.6,89.3,41.6z M84.3,41.3l-1,0c0,1-0.1,0.6,0.4,1
			c0.1,0.1,0.2,0.2,0.3,0.4c0.2-0.1,0.2-0.2,0.5-0.3L84.3,41.3z M76,80.1c-0.1,0.1-0.1-0.2-0.1,0.3l0.4,0.1l0.1-0.5
			c0.1-0.3,0.6-1.9,0.7-2.1c0.3-0.5,0.5-0.2,0.7-0.6c0,0,0.2-0.5,0.2-0.5c0.1-0.4,0-0.2-0.1-0.5c-0.3-0.6,0.2-1.6,0.3-2.2
			c0.2-0.6,0.1-0.6,0.5-0.8c0,0,0.5-0.1,0.5-0.9c0-0.9-0.6,0.5,0-2.2c0.1-0.3,0.2-0.8,0.3-1c0.4-0.5,0.5,0,0.7-0.8
			c0.3-1.4-0.8,0.3,0.1-3.3c0.2-0.9,0.7-0.3,0.8-1.4c0-0.6,0.1-0.2-0.2-0.6c-0.3-0.5,0-2,0.1-2.6c0.2-0.8,0.5-0.1,0.7-1
			c0.2-1.1-0.2-0.4-0.4-1.2c-0.1-0.3,0.1-1.1,0.1-1.4c0-0.5,0-1,0.3-1.3c0.5-0.5,0.4-0.2,0.5-1.2c-0.2-0.2-0.4-0.3-0.5-0.7
			c0-0.3,0-0.9,0.1-1.2c0.1-1.2-0.1-1,0.6-1.6l0-0.9c-0.7-0.5-0.5-0.7-0.5-2.3c0-0.6-0.1-0.8,0.3-1.1c0.4-0.4,0.3-0.4,0.3-1.1
			c-0.8-0.5-0.5-1-0.6-2.2c0-0.5-0.1-0.8,0.2-1.1c0.3-0.3,0.2,0,0.3-0.4c0-0.2,0-0.4-0.1-0.6l-3.7-0.1c0,0.2,0,0.6,0.1,0.8
			c0.2,0.7,0.8-0.1,0.7,2.9c0,0.6-0.2,0.6-0.5,0.9c0,0.7-0.1,0.7,0.3,1.1c0.5,0.4,0.3,1.9,0.3,2.5c0,0.8-0.5,0.7-0.5,0.9
			c0,0.6-0.1,0.7,0.2,1.1c0.4,0.4,0.3,0.4,0.3,1.1c-0.1,2.8-0.2,1.6-0.6,2.3c-0.2,0.4-0.1,0.9,0.2,1.2c0.3,0.4,0.3,0.6,0.2,1.2
			c-0.1,1.1,0.1,1.7-0.7,2.1c-0.1,1.5,0,0.8,0.3,1.4c0.2,0.4,0,2.7-0.3,3c-0.3,0.3-0.4-0.1-0.5,1.2c0.6,0.7,0.4,0.9,0.3,1.9
			c-0.3,2.3-0.8,0.9-0.9,2.2c-0.1,0.9,0.5,0.3,0.3,1.5c-0.4,3.3-0.8,1.7-1.1,2.8c-0.2,0.8,0.1,0.8,0.1,0.9c0.3,0.6-0.2,2.7-0.5,3
			c-0.6,0.6-0.5,1-0.4,1.8C76.2,79.5,76,79.6,76,80.1z M77.1,43.3c0.2-0.2,0.1-0.9-0.1-1.1c-0.1,0.2-0.2,0.1-0.1,0.6
			C76.9,43.3,76.8,43.2,77.1,43.3z M97.3,43.8c0.1-0.2,0.2-0.6,0.1-0.9c0-0.2,0-0.1-0.1-0.2C97,42.9,96.9,43.7,97.3,43.8z
			 M98.4,44.1c0.4-0.2,0.1-1,0.1-1.1c-0.1,0-0.4-0.1-0.2,0.9C98.3,44,98.3,44,98.4,44.1z M90,44.3c0.2-0.2,0.1-0.9-0.1-1.1
			c-0.1,0.1-0.1-0.1-0.1,0.3C89.7,44.2,89.8,44.2,90,44.3z M83.1,44.2c0.1-0.3,0-0.8-0.2-0.9c-0.1,0.3-0.1,0.6-0.1,0.9
			c0,0.3,0,0.1,0.1,0.2C83.2,44.2,83,44.5,83.1,44.2z M78.5,44.5c0.2-0.2,0.1,0.2,0.2-0.3c0-0.2,0-0.6-0.2-0.9
			c-0.1,0.2-0.1-0.2-0.1,0.3L78.5,44.5z M85,44.6c0.1-0.2,0.1-0.4,0.1-0.7c0-0.5,0.1-0.4-0.3-0.4C84.8,44.5,84.7,44.4,85,44.6z
			 M91.5,44.7c0.1-0.3,0.2-0.8,0-1.1c-0.3,0.1-0.2,0.1-0.2,0.6C91.3,44.7,91.3,44.5,91.5,44.7z M78.2,46.7c0-0.9,0.1-0.9-0.2-1.2
			c-0.4-0.4-0.3-0.4-0.4-1.2c-0.1,0.1-0.2-0.1-0.2,0.4c0,0.9,0.4,0.6,0.5,1.1C78.1,46.2,78.1,46.5,78.2,46.7z M98,46.2
			c0.1-1,0.1-0.9-0.3-1.1l-0.1,0.8C97.6,46.2,97.6,46.1,98,46.2z M91,46.9l0-1c-0.2-0.2-0.4-0.4-0.6-0.5l0,1L91,46.9z M83.3,50.1
			c-0.1,2.4,0.7-0.3,0.4,3.4c-0.1,1.3-0.5,0.7-0.7,1.3c-0.3,1,0.3,0.7,0.4,1.6l0.3-0.4c0.1-0.1,0.2-0.2,0.4-0.3
			c0-0.2,0.1-0.6,0.1-0.7c-0.1-0.8-0.5,0.1-0.4-1.7c0-0.4,0-1,0.1-1.3c0.2-0.8,0.5-0.2,0.6-1c0.1-0.9-0.2-0.6-0.4-1.1
			c-0.1-0.1-0.2-2.4,0.2-2.8c0.4-0.4,0.3,0,0.3-1.3c-0.5-0.3-0.4-0.3-0.6-0.8c-0.2,0.4-0.1,0.4-0.5,0.5c0,0.2,0,0.5,0,0.7
			c0.1,1,0.5-0.1,0.5,1.6C83.9,48.8,84.1,49.7,83.3,50.1z M77.3,46.6c-0.1,0.2-0.1,0-0.2,0.2c0,0,0,0.3,0,0.3c0,0.4,0.1,0.4,0.2,0.5
			C77.5,47.3,77.4,46.9,77.3,46.6z M98.3,47.3c-0.1,0.2-0.1,0.2-0.1,0.5c0,0,0,0.3,0,0.3c0.1,0.2,0,0.1,0.1,0.3l0.2-0.6
			C98.5,47.3,98.5,47.5,98.3,47.3z M97.1,47.1c-0.2,0.2-0.3,0.9-0.1,1.1C97.3,48.1,97.2,47.3,97.1,47.1z M90.1,47.6
			c-0.3,0.1-0.2,0-0.2,0.5c0,0.5-0.1,0.4,0.2,0.5C90.2,48.4,90.2,47.9,90.1,47.6z M91.4,48c-0.3,0.1-0.2,0-0.2,0.5
			c0,0.7,0.1,0.5,0.1,0.6C91.5,48.9,91.5,48.3,91.4,48z M83,47.7c-0.1,0.1-0.3,0-0.2,0.8c0,0.4,0,0.2,0.1,0.3c0.3-0.2,0.2,0,0.2-0.5
			C83.1,48,83.1,48,83,47.7z M85,47.9c-0.1,0.1-0.1,0-0.1,0.2c-0.1,0.3-0.1,0.7,0.1,0.9c0.2-0.2,0.2-0.6,0.2-0.9
			C85,47.8,85.1,48.1,85,47.9z M78.6,47.9c-0.1,0.2-0.2,1,0.1,1.2c0.1-0.2,0.1-0.3,0.1-0.6C78.8,48,78.9,48,78.6,47.9z M97.4,49.4
			c-0.2,0.3-0.4,1.4,0.2,1.1c0.2-0.1,0.2-0.4,0.2-0.6C97.8,49.4,97.8,49.4,97.4,49.4z M90.4,50.1c-0.1,1-0.1,0.7,0.2,1
			C90.9,50.6,90.8,50.3,90.4,50.1z M77.4,50.9c-0.2,0.2-0.1-0.1-0.1,0.2c0,0,0,0.3,0,0.3c0,0.4,0.1,0.4,0.2,0.6
			C77.6,51.7,77.6,51.2,77.4,50.9z M98,51.7c-0.3,0.1-0.2-0.1-0.3,0.4c-0.1,0.3-0.1,0.4,0.1,0.6C98,52.6,98.1,51.9,98,51.7z
			 M96.7,51.5c0,0-0.4-0.1-0.3,0.7c0,0.3,0,0.2,0.1,0.4C96.6,52.3,96.7,52,96.7,51.5z M89.9,52c-0.1,0.1-0.1,0.1-0.2,0.5
			c-0.1,0.5,0,0.5,0.1,0.6c0.2-0.3,0.2-0.8,0.2-0.9C90,52.1,89.9,52.1,89.9,52C89.9,52.1,89.9,52,89.9,52z M91,52.5
			c-0.3,0.1-0.2,0.1-0.3,0.6c-0.1,0.5-0.1,0.4,0.2,0.5C91.1,53.3,91.1,52.7,91,52.5z M84.9,52.5c-0.1,0-0.3,0-0.3,0.8
			c0,0.3,0,0.2,0.2,0.4c0-0.1,0.1-0.1,0.1-0.2L84.9,52.5z M82.8,52.2c-0.2,0.1-0.3,0.2-0.2,0.8c0,0.4,0,0.2,0.1,0.3
			c0.2-0.2,0.1-0.1,0.2-0.5C82.9,52.2,82.9,52.4,82.8,52.2z M78.6,52.4c-0.1,0.3-0.2,0.9,0,1.2C78.9,53.3,78.9,52.7,78.6,52.4z
			 M97.1,53.8c-0.6-0.3-0.7,0.5-0.6,1c0.4,0.1,0.5,0.1,0.6-0.3c0,0,0.1-0.3,0.1-0.3C97.2,53.7,97.1,53.8,97.1,53.8z M90.1,54.6
			c0,0.1-0.1,0.1-0.1,0.3c0,0.5,0,0.3,0.1,0.4c0.1-0.1,0.1-0.1,0.2-0.4C90.3,54.6,90.1,54.7,90.1,54.6z M97.2,55.9
			c-0.1,0.1-0.1,0-0.1,0.2c0,0.1-0.1,0.2-0.1,0.3c-0.2,0.7,0,0.4,0,0.5c0.1-0.1,0.2,0.1,0.3-0.5c0,0,0-0.3,0-0.3
			C97.3,55.8,97.3,56.1,97.2,55.9z M95.4,56.8l0.2,0.1l0.1-0.3c0-0.6,0.3-0.5,0-0.8C95.5,56,95.5,56.3,95.4,56.8z M77.4,55.3
			c-0.3,0.1-0.2,0-0.2,0.5c0,0.5-0.1,0.5,0.2,0.6C77.5,56.1,77.6,55.5,77.4,55.3z M89.4,56.3c-0.2,0.1-0.2-0.1-0.3,0.5
			c0,0.3-0.1,0.4,0,0.6C89.4,57.2,89.4,56.7,89.4,56.3z M90.4,56.9c-0.3,0.2-0.4,0.9-0.2,1.1L90.4,56.9z M84.4,57
			c-0.2,0.2-0.3,0.8-0.1,1.2c0.2-0.2,0.3-0.6,0.2-0.9C84.4,56.7,84.5,57.2,84.4,57z M82.4,56.7c-0.2,0.2-0.2,0.6-0.2,0.9
			c0,0.5,0,0.1,0.1,0.3c0.2-0.1,0.3-0.4,0.2-0.8C82.5,56.5,82.6,56.9,82.4,56.7z M78.5,57c-0.3,0.1-0.2,0-0.2,0.5
			c0,0.4-0.1,0.5,0.1,0.7C78.7,58,78.7,57.2,78.5,57z M96.2,57.9l-0.6,0.1c-0.1,0.3-0.2,0.7-0.2,1C96.3,59,96.3,58.3,96.2,57.9z
			 M83.1,58.6c-0.4,0.8-0.5-0.1-0.6,1.4c0.1,0.2,0.1,0.2,0.3,0.3l0.2,0.3c0.2-0.3,0.2-0.3,0.6-0.4c0-0.3,0.2-0.7,0.1-0.9l-0.4-0.6
			C83.2,58.8,83.2,58.7,83.1,58.6C83.1,58.7,83.1,58.7,83.1,58.6z M94.6,60c-0.2,0.2-0.4,0.8-0.3,1.1c0.3-0.1,0.2-0.1,0.3-0.5
			C94.7,60.2,94.8,60.2,94.6,60z M96.1,60.1c-0.3,0.2-0.4,0.8-0.3,1c0.3-0.1,0.2,0,0.3-0.4C96.2,60.4,96.3,60.3,96.1,60.1z
			 M77.2,59.6c-0.1,0.2-0.1,0.2-0.1,0.5c0,0,0,0.3,0,0.3c0.1,0.2,0.1,0.1,0.1,0.3c0.1-0.1,0.1-0.1,0.1-0.3
			C77.4,60,77.4,59.8,77.2,59.6z M81.9,61.2c-0.2,0.1-0.3,0.1-0.3,0.8l0.1,0.4C82,62.1,82,61.4,81.9,61.2z M83.7,61.5
			c-0.3,0.1-0.4,0.4-0.3,0.8c0,0.5-0.1,0.1,0.1,0.3C83.7,62.4,83.9,61.7,83.7,61.5z M94.1,63c-0.1,0.1-0.2-0.1,0,0.3l0.2-0.1
			l0.5-0.2l0.3-0.9l-0.8,0.2L94.1,63z M78.1,61.5c-0.2,0.3-0.3,0.9-0.1,1.2C78.3,62.5,78.3,61.8,78.1,61.5z M82.8,63.7
			c-0.1-0.2-0.2-0.2-0.3-0.4c-0.2,0.1-0.4,0.2-0.6,0.3c-0.1,0.5-0.3,1.3,0.3,1.2C82.7,64.8,82.7,64.2,82.8,63.7z M93.3,64.1
			c-0.2,0.1-0.1-0.1-0.4,0.5c-0.1,0.4-0.2,0.3,0,0.6c0.2-0.1,0.1,0.2,0.3-0.5C93.2,64.4,93.4,64.3,93.3,64.1z M94.8,64.3
			c-0.2,0.1-0.4,0.4-0.5,0.7c-0.1,0.4,0,0.1,0.1,0.3c0.2-0.2,0.2-0.2,0.3-0.5C94.9,64.3,94.8,64.4,94.8,64.3z M77,64
			c0,0-0.3-0.1-0.2,0.8c0.1,0.5,0,0.1,0.1,0.3c0.1-0.1,0.1,0,0.1-0.2c0,0,0-0.2,0-0.2c0,0,0-0.3,0-0.3L77,64C77,64,77,64,77,64z
			 M81.2,65.7c-0.2,0.1-0.2-0.1-0.3,0.5c-0.1,0.3-0.1,0.4,0,0.6c0.3-0.1,0.2-0.1,0.3-0.5C81.2,66,81.3,65.8,81.2,65.7z M82.8,65.9
			c-0.3,0.1-0.2,0-0.3,0.5c-0.2,0.8-0.1,0.5,0,0.6C82.8,66.8,82.9,66.1,82.8,65.9z M93.5,66.2c-0.2,0-0.7,0.2-0.8,0.3
			c-0.1,0.1-0.3,0.6-0.3,0.9C93.2,67,93.2,67.2,93.5,66.2z M91.5,68.1c-0.3,0.1-0.5,0.6-0.5,1c0.3-0.1,0.2,0,0.4-0.4
			C91.6,68.4,91.7,68.3,91.5,68.1z M81.6,67.8c-0.6,0.2-0.5,0.1-0.6,0.7c-0.2,0.8-0.1,0.7,0.6,0.6C81.7,68.2,81.9,68.2,81.6,67.8z
			 M93.1,68.3c-0.2,0.2-0.5,0.7-0.5,0.7c-0.1,0.4,0,0.1,0.1,0.3C92.9,69.1,93.3,68.5,93.1,68.3z M76.5,68.3c-0.2,0.3-0.3,0.8,0,1.1
			C76.6,69.1,76.8,68.6,76.5,68.3z M91.7,70.1c-0.8,0.4-0.9,0.1-1.1,1C91.4,70.9,91.2,71.1,91.7,70.1z M80.2,70l-0.2,0.5
			c-0.2,0.8,0,0.5,0,0.6c0.2-0.2,0.3-0.6,0.3-0.8C80.3,69.8,80.3,70.2,80.2,70z M81.6,70.3c-0.2,0.1-0.4,0.5-0.4,0.8
			c0,0.5,0,0.1,0.1,0.3c0.1-0.1,0,0.1,0.2-0.2c0,0,0.1-0.3,0.1-0.3C81.6,70.5,81.7,70.4,81.6,70.3z M77,70.6
			c-0.4,0.2-0.4,0.9-0.2,1.1C77,71.5,77.1,70.8,77,70.6z M89.6,72.1c-0.4-0.1-0.2-0.1-0.4,0.3C89.1,72.6,89,72.7,89,73
			C89.3,72.9,89.5,72.6,89.6,72.1z M91.1,72.1c-0.4,0.1-0.2,0.1-0.4,0.4c-0.2,0.3-0.2,0.2-0.2,0.6C90.9,73,91.1,72.4,91.1,72.1z
			 M80.5,72.3c-0.6,0.1-0.5,0.4-0.7,1c0.5-0.1,0.3,0,0.5-0.4C80.4,72.7,80.4,72.6,80.5,72.3z M76,72.7c-0.1,0.1-0.1,0-0.1,0.2
			l-0.1,0.8c0.3-0.1,0.2,0.1,0.3-0.4C76.1,72.9,76.1,73,76,72.7z M89.4,74.2c-0.8,0.1-0.6-0.2-0.9,0.5l0.6,0L89.4,74.2z M80.2,74.5
			c-0.2,0.1-0.4,0.6-0.4,0.9c0,0.5,0,0.1,0.1,0.2C79.9,75.6,80.4,74.8,80.2,74.5z M79,74.4c-0.2,0.2-0.3,0.7-0.4,1.1
			C79,75.4,79.2,74.6,79,74.4z M76.1,75.1c-0.1,0.3-0.2,0.5-0.1,0.9c0.2-0.2,0.2-0.2,0.2-0.5C76.3,75,76.3,75.1,76.1,75.1z
			 M87.4,75.8c-0.4,0-0.3,0-0.5,0.3c-0.1,0.2-0.2,0.3-0.3,0.6C87,76.7,87,76.5,87.4,75.8z M88.8,75.8c-0.4,0.1-0.6,0.6-0.7,0.7
			c-0.1,0.4-0.1,0.1,0.1,0.3C88.5,76.6,88.8,76.2,88.8,75.8z M85.5,80.1c0.3,0,0.3,0,0.5-0.2C86.8,78.9,85.8,79.3,85.5,80.1z
			 M84.7,79.4c-0.1,0-0.8,0.7-0.6,0.9c0.2,0.2,0.3-0.2,0.4-0.3C85,79.4,85,79.5,84.7,79.4z M79.1,81.7c-2.3-0.2-1.4,0.2-1.4,1
			c0,0.3-0.3,0.6-0.4,1C79.7,83.6,78.3,82.9,79.1,81.7z M76.2,81.7l-0.1-0.1c-0.8-0.2-0.8,0.2-0.9,0.6c-0.1,0.4-0.3,1-0.2,1.3
			c0.2-0.3,0.3-0.7,0.4-1.1C75.7,81.8,75.6,82,76.2,81.7z M99.4,82.5l-2.5-0.2l0,0.8c0.5,0,1-0.1,1.4-0.1
			C99.5,82.8,99.1,82.7,99.4,82.5z M83.4,82.6c-0.4,0.1-0.1-0.1-0.4,0.4c-0.1,0.2-0.2,0.2-0.3,0.5C82.9,83.4,83.6,82.9,83.4,82.6z
			 M88.4,81.9l-0.1,1.5c0.8,0,1.3,0.1,1.9-0.3c0.8-0.5,0.9,0.1,1.5,0.1c0.1,0,3.7,0,3.9-0.3c0.1-0.2,0.1-0.7-0.1-0.8
			c-0.1-0.1-0.8-0.1-1-0.1C93,82,89.8,81.8,88.4,81.9z M87.2,81.8c-0.5,0-0.9,0-1.4,0c-0.2,0-0.4,0-0.6,0c-1.2,0-0.3,0.6-1,1.3
			c-0.2,0.3-0.1,0-0.3,0.4c0.8,0,1.6,0,2.4,0C87,83.5,87.3,83.8,87.2,81.8z M76.4,83.1l-0.2,0.1c-0.3,0.5-0.1,0.4-0.1,0.4L76.4,83.1
			z M100,84l-3.3,0.3l-0.7,7.1l3.1,0.4L100,84z M76.9,84.9c-0.6,0.1-0.3,0.1-0.7,0.3c-0.5,0.3-0.3-0.1-0.5,0.4
			c-0.2,0.5-0.2,0.7,0,1.1l0.1,0.2c0,0,0,0.1,0,0.1c0,0,0,0,0,0.1c0.6-0.3,0.2-0.5,0.4-1.1C76.4,85.8,76.8,85,76.9,84.9z M75,84.9
			c-0.2,0-0.5-0.2-0.5,0.4c0,0.3,0,0.2,0.1,0.3L75,84.9z M90.5,84.6l-2.2,0.1l-0.8,6.2l2.2,0.1C89.9,90.4,90.4,85.5,90.5,84.6z
			 M87,84.7L82,84.8l-0.4,5.9l4.6,0.1C86.5,90.3,86.9,85.7,87,84.7z M78,85.2c-0.4,0.2-0.4,0.1-0.4,0.5C78,85.5,77.9,85.4,78,85.2z
			 M95.5,84.4l-3.8,0.2l-0.8,6.5l4,0.3C95.1,89.2,95.5,86.5,95.5,84.4z M78.3,86.5c0,0-0.3-0.3,0,0.2C78.3,86.7,78.6,86.6,78.3,86.5
			z M79.5,87.7c-0.4,0-0.4-0.1-0.7,0c-0.8,0.4-0.2,0.9-1.1,1.6c-0.3,0.3-0.6,0.5-1,0.8c-0.6,0.5-0.8,0.2-1.4,0.5
			c0.3,0.2,0.9,0.1,1.4,0.1l2.6,0L79.5,87.7z M86.1,92.1L81.4,92l-0.2,1.8l4.6-0.1L86.1,92.1z M79.2,92l-4.9-0.1l0,2l4.7,0L79.2,92z
			 M96.5,92.8c-0.3-0.1-0.3-0.1-0.7-0.1l-0.1,0.4c0.3,0.1,0.2,0.1,0.5,0c0.4,0,0.8,0,1.2-0.2L96.5,92.8z M94.7,92.6l-3.9-0.3
			l-0.2,0.6c0,0.2,0,0.4-0.1,0.5c0.5,0.1,2.8-0.1,3.6-0.2C94.8,93.3,94.7,93.3,94.7,92.6z M89.5,92.3l-2.3-0.1L87,93.6l2.3-0.1
			L89.5,92.3z M98.9,94l-3.3,0.4c-1,4.7-1.3,3.6-1.6,4.5c1.3,0.1,2.4,0.4,3.6,0.5C98.3,98.6,98.7,95.5,98.9,94z M94.4,94.5l-4,0.3
			l-0.8,3.8c1.4,0.1,2.9,0.3,3.7-0.7C93.8,97.4,94.3,95.6,94.4,94.5z M89.1,94.9L86.8,95L86,98.4l2.3,0.2L89.1,94.9z M85.6,95
			c-1.3,0-2.9,0-4.2,0.1c-0.6,0-0.4,0.2-0.7,1.3c-0.1,0.5-0.5,1.2-0.6,1.5l4.8,0.4L85.6,95z M78.8,95.2l-3.8,0l0,1.5
			c0.8,0.4,2.2,0.9,3.3,0.8C78.5,97,78.7,95.9,78.8,95.2z M85.4,100.9l2.1,0.3c0.1-0.4,0.4-0.9,0.4-1.4l-2.4-0.1
			C85.7,101,85.7,100.2,85.4,100.9z M95.8,100.5c-0.5-0.2-5.8-0.6-6.6-0.6l-0.4,1.2C89.9,101.1,95.1,100.8,95.8,100.5z M74.9,101.4
			c0.3,0.2,0.4,0.1,0.8,0.1c-0.1-0.1-0.3-0.2-0.4-0.2C74.8,101.1,75,101.2,74.9,101.4z M75.9,67.5c0.1-0.2,0,0,0.2-0.2
			c0.1-0.1,0.1-0.1,0.2-0.2l0.1-0.7c-0.1-0.5-0.5-0.2-0.4-1.5c0-0.4,0.1-0.9,0.1-1.3c0.1-0.7,0.2-0.5,0.6-0.8l0.1-0.9
			c-0.7-0.3-0.5-1.1-0.4-2c0.1-2.1,0.6-0.7,0.6-1.8c0-0.9-0.6-0.2-0.5-1.9c0-0.4,0-0.9,0-1.2c0.1-0.5,0.2-0.5,0.5-0.7
			c0.1-2.1-0.5-0.1-0.5-2.1c0-3,0.1-1.4,0.5-2.3c0.3-0.7-0.3-1-0.3-1c-0.3-0.3-0.3-0.6-0.3-1.1c0-0.4-0.1-0.8,0-1.2
			c0-0.7,0.1-0.6,0.5-0.9c0-1.7-0.6-0.4-0.7-2c-0.1-1.3-0.3-1.6,0.3-2.3l-2.1,0c-0.1,8.7,0,18,0,26.9c0,1.6-0.1,7.9,0.1,9
			c0.2-1,0.1-0.7,0.4-1c0.9-0.8-0.1-0.9,0.1-2.4c0.1-0.4,0.1-1,0.2-1.4c0.2-0.7,0.5-0.3,0.7-0.9c0.3-0.8-0.1-0.7-0.3-1.1
			c-0.1-0.3,0.1-1.7,0.1-2.1c0-0.1,0-0.2,0.1-0.3C75.9,67.3,75.7,67.5,75.9,67.5z M77.4,66l-0.1,1.2c0.4,0,0.3-0.2,0.3-0.6l0.1-0.5
			c0,0-0.1-0.1-0.1-0.1C77.7,66.1,77.5,66,77.4,66z M85.7,77.5c-0.1-0.7-0.3-1,0.4-1.4c0.1-0.3,0-0.1,0.2-0.4c1-1.6,0.9-0.8,1.5-1.3
			c0,0,0.3-0.4,0.3-0.4c0.2-0.5-0.2-0.4,0-1c0.1-0.2,0.8-1.5,1-1.8c0.4-0.6,0.5-0.1,0.9-0.5c0.4-0.5,0.2-0.7,0.1-1.1
			c-0.1-0.4,0.6-1.5,0.8-2c0.3-0.7,0.1-0.3,0.7-0.6c0.3-0.1,0.5-0.6,0.4-0.9c-0.2-1-0.4,0.1,0.4-2.1c0.2-0.4,0.2-0.7,0.5-0.9
			c0.5-0.3,0.5,0,0.7-0.8c0.2-0.9-0.6,0.3,0.1-2c0.7-2.3,0.6-0.8,1.1-1.7c0.6-1.3-0.7,0.2,0.3-3.3c0.2-0.7,0.4-0.4,0.7-0.8
			c0-0.1,0.1-0.4,0.1-0.5c0.1-1.3-0.7,0.8-0.1-2.9c0.1-0.8,0.3-0.5,0.6-0.8c0.1-0.2,0.3-0.6,0-1c-0.4-0.6-0.3-0.4-0.3-1.2
			c0.1-1-0.1-1.8,0.7-2.1c0-0.6,0.1-0.8-0.1-1c-0.8-0.7-0.2-1.1-0.4-2.8l-4.4-0.4c0,1.5,0.6-0.1,0.6,2.1c0,0.4,0,1,0,1.3
			c-0.1,0.6-0.3,0.5-0.6,0.8c-0.1,1.3,0,0.6,0.4,1.2c0.2,0.4,0.1,2.5-0.2,2.8c-0.3,0.3-0.3,0.1-0.4,0.4c-0.1,0.2-0.1,0.6-0.1,0.8
			c0.6,0.8,0.5,0.7,0.3,1.8c-0.1,1,0,1.3-0.8,1.7c0,0.3-0.2,0.7-0.1,0.9c0.1,0.3,0.7,0.3-0.1,2.8c-0.2,0.7-0.9,0.4-0.9,1.5
			c0,0.5,0.6,0,0.1,1.7c-0.2,0.6-0.2,1.4-0.7,1.7c-0.4,0.3-0.4,0-0.5,0.6c-0.2,0.7,0,0.4,0.1,0.9c0.2,0.5-0.3,1.3-0.4,1.8
			c-0.4,1.4-0.7,0.7-1,1.3c-0.6,1,0.7,0.9-0.8,3.5c-0.3,0.6-1.1,0.3-1.1,1.3c0,0.8,0.5,0.1-0.3,1.8c-0.3,0.6-0.3,1.1-1,1.4
			c-0.9,0.3-0.4,1-0.6,1.8c-0.1,0.3-0.9,1.9-1.4,2.1c-0.5,0.2-0.5-0.1-0.7,0.5l1.1,0.1c0.4-0.7,1.2-2.1,2-2.3
			C85.6,78,85.2,77.9,85.7,77.5z M86.7,78.1c0.1-0.4-0.1-0.2-0.5-0.2c0,0.4,0,0.1,0.1,0.2L86.7,78.1z M72.5,39.4L72.5,39.4
			L72.5,39.4L72.5,39.4L72.5,39.4c-2.9,0-5.7,0.1-8.5,0.2c-1.4,0.1-2.7,0.2-4,0.3c-1.1,0.1-2.8,0.4-3.8,0.4l7.8-0.4
			c3-0.1,5.8-0.2,8.5-0.2c2.7,0,5.5,0,8.5,0.2l7.8,0.4c-1,0-2.7-0.3-3.8-0.4c-1.4-0.1-2.7-0.2-4-0.3C78.2,39.4,75.4,39.4,72.5,39.4z
			 M72.5,28.8L72.5,28.8c8.9,0,17.8,0.5,26.5,1.4c1.6,0.2,2.6,1.3,2.5,3c-0.1,1.7-0.3,3.5-0.4,5.2c-0.2,2-0.3,3.1-1.8,3.7
			c0.1,0.6,0.1,1.2,0.1,1.9c0,0.8,0,0.9-0.6,1.2l0,0.7c0,0-0.1,0-0.1,0.1c0,0-0.1,0-0.1,0.1c0,0-0.1,0-0.1,0.1c0,0,0,0-0.1,0.1
			c-0.5,0.5-0.3,0.8,0.1,0.7c0.3,0,0.3-0.2,0.4-0.3l0.2,0.1c0.3,0.2,0.1,1.7,0,2.2c-0.1,1.3-0.6,0.1-0.7,1.8
			c0.7,0.8,0.4,1.2,0.2,2.3c-0.1,0.6-0.1,0.8-0.4,1c-0.4,0.3-0.2-0.1-0.4,0.4c-0.3,0.8,0.4,0.8,0.2,1.7c-0.1,0.6-0.2,1.8-0.7,2.2
			c-1.2,0.8-0.2,1-0.3,1.9c-0.1,0.4-0.4,1.8-0.7,2.2c-0.4,0.4-0.5,0-0.7,0.7c-0.3,0.9,0.2,0.4,0.1,1.1c0,0.3-0.3,0.8-0.4,1.1
			c-0.1,0.3-0.3,0.8-0.4,1c-0.3,0.6-0.8,0.3-1,1c-0.1,0.6,0,0.2,0.1,0.5c0.2,0.5,0,0.6-0.2,1.1c-0.1,0.3-0.3,0.6-0.5,1
			c-0.5,1-0.7,0.4-1.1,1c-0.5,0.7,0.1,0.8-0.2,1.5c-0.1,0.3-0.8,1.5-1,1.7c-0.5,0.5-1.4,0.1-1.2,1.4c0.1,0.6-0.6,1.4-0.9,1.8
			c-0.3,0.4-0.3,0.6-0.8,0.7c-0.4,0.1-0.6,0.1-0.8,0.6c-0.2,0.5,0.2,0.5-0.1,1.1c-0.2,0.3-0.4,0.4-0.5,0.7c1.1-0.8,1.2,0,1.8,0.2
			c0.5,0.2,4.1,0.2,4.9,0.2c1.8,0.1,1.5-0.3,2.3-0.3c0.6,0,0.5,0.3,0.9,0.4c0.3,0.1,0.8,0.1,1.2,0.1c0.8,0.1,1.6,0.1,2.3,0.2
			c1.4,0.1,3.3,0.2,4.1,1c0.4,1.6-1.6,1.3-2.8,1.7c-0.1,1-0.9,7.5-0.9,8.3c0.1,0.8,0.3,0.4-0.1,1.2c-0.4,0.8-0.5,4.1-1.4,6.1
			c-0.5,1.1-0.3,1-1.2,1.9c-2.1,1.9-4.8,1.6-7.5,1.3c-1.6-0.2-1.7-0.5-2.4,0.2c-0.5,0.5-1.4,0.7-2.2,0.8c-1.8,0.1-3.7-0.3-5.3-0.8
			c-1.8-0.5-3.9-0.2-5.8-0.2l0,19.2l-1.8,0l-1.8,0l0-19.2c-1.9,0-4.1-0.3-5.8,0.2c-1.6,0.4-3.5,0.9-5.3,0.8
			c-0.9-0.1-1.7-0.3-2.2-0.8c-0.7-0.6-0.8-0.4-2.4-0.2c-2.7,0.3-5.5,0.6-7.5-1.3c-0.9-0.9-0.7-0.7-1.2-1.9c-0.9-2-1-5.3-1.4-6.1
			c-0.4-0.8-0.2-0.4-0.1-1.2c0.1-0.8-0.7-7.3-0.9-8.3c-1.2-0.4-3.2-0.1-2.8-1.7c0.7-0.7,2.7-0.8,4.1-1c0.7-0.1,1.5-0.1,2.3-0.2
			c0.4,0,0.8,0,1.2-0.1c0.4-0.2,0.3-0.4,0.9-0.4c0.7,0,0.4,0.4,2.3,0.3c0.8,0,4.4-0.1,4.9-0.2c0.6-0.2,0.7-1,1.8-0.2
			c-0.2-0.3-0.3-0.4-0.5-0.7c-0.4-0.6,0-0.6-0.1-1.1c-0.2-0.5-0.5-0.5-0.8-0.6c-0.5-0.1-0.5-0.3-0.8-0.7c-0.3-0.4-1-1.2-0.9-1.8
			c0.2-1.3-0.7-0.9-1.2-1.4c-0.2-0.2-0.9-1.4-1-1.7c-0.3-0.8,0.3-0.9-0.2-1.5c-0.4-0.6-0.6,0-1.1-1c-0.2-0.3-0.3-0.7-0.5-1
			c-0.2-0.5-0.4-0.6-0.2-1.1c0.1-0.4,0.2,0.1,0.1-0.5c-0.2-0.8-0.7-0.5-1-1c-0.1-0.2-0.3-0.7-0.4-1c-0.1-0.3-0.4-0.8-0.4-1.1
			c0-0.8,0.4-0.3,0.1-1.1c-0.2-0.7-0.4-0.3-0.7-0.7c-0.3-0.3-0.7-1.7-0.7-2.2c-0.1-0.9,0.9-1.1-0.3-1.9c-0.5-0.3-0.6-1.6-0.7-2.2
			c-0.2-1,0.5-0.9,0.2-1.7c-0.2-0.5,0-0.1-0.4-0.4c-0.4-0.3-0.3-0.4-0.4-1c-0.2-1.1-0.5-1.5,0.2-2.3c-0.1-1.7-0.6-0.5-0.7-1.8
			c0-0.4-0.3-1.9,0-2.2l0.2-0.1c0.1,0.1,0.1,0.3,0.4,0.3c0.4,0,0.6-0.2,0.1-0.7c0,0,0,0-0.1-0.1c0,0-0.1,0-0.1-0.1
			c0,0-0.1,0-0.1-0.1c0,0-0.1,0-0.1-0.1l0-0.7c-0.6-0.3-0.6-0.4-0.6-1.2c0-0.6,0-1.3,0.1-1.9c-1.5-0.6-1.6-1.8-1.8-3.7
			c-0.1-1.7-0.4-3.5-0.4-5.2c-0.1-1.8,0.9-2.9,2.5-3C54.7,29.3,63.6,28.8,72.5,28.8L72.5,28.8L72.5,28.8z"/>
	</g>
</g>
</svg>
