<?xml version="1.0" encoding="utf-8"?>
<!-- Generator: Adobe Illustrator 18.0.0, SVG Export Plug-In . SVG Version: 6.00 Build 0)  -->
<!DOCTYPE svg PUBLIC "-//W3C//DTD SVG 1.1//EN" "http://www.w3.org/Graphics/SVG/1.1/DTD/svg11.dtd">
<svg version="1.1" id="Layer_1" xmlns="http://www.w3.org/2000/svg" xmlns:xlink="http://www.w3.org/1999/xlink" x="0px" y="0px"
	 width="145px" height="145px" viewBox="0 0 145 145" enable-background="new 0 0 145 145" xml:space="preserve">
<g>
	<g>
		<path fill-rule="evenodd" clip-rule="evenodd" fill="#7E3FD8" d="M72.5,3.1c38.4,0,69.4,31.1,69.4,69.4
			c0,38.4-31.1,69.4-69.4,69.4c-38.4,0-69.4-31.1-69.4-69.4C3.1,34.1,34.1,3.1,72.5,3.1"/>
	</g>
	<g>
		<path fill="#FFFFFF" d="M72.5,132.8c-33.2,0-60.3-27-60.3-60.3s27-60.3,60.3-60.3s60.3,27,60.3,60.3S105.7,132.8,72.5,132.8z
			 M72.5,15.4C41,15.4,15.4,41,15.4,72.5s25.6,57.1,57.1,57.1s57.1-25.6,57.1-57.1S104,15.4,72.5,15.4z"/>
	</g>
	<g>
		<path fill="#FFFFFF" d="M100.4,106.3l-0.9-1.7c-0.8-1.4-2.4-4.3-5.2-7.6c-1.1-1.3-2.3-2.5-3.5-3.7c-5.2,1.1-10.6,1.1-15.6-0.1
			c-3.8-0.9-6.8-2-9.4-3.4c-3-1.7-5.6-4.1-7.5-7c-1.8-2.7-3-5.9-3.7-9.5c-0.3-1.9-0.4-3.7-0.3-5.2c0.1-1.4,0.4-3,0.9-5
			c0.8-3,1.1-4.4,0.5-7.4c-1.5-0.7-4.3-2.3-8.6-4.8l-0.4-0.2l0.7-3c1.2-0.1,2.6-0.2,4-0.2c1.5-0.1,3-0.2,4.4-0.3
			c0.4-1.1,1.1-2.2,1.9-3.2c2.3-2.6,5.7-4.2,9.4-4.4c3.7-0.2,7.3,1,9.9,3.4c2.3,2,3.6,4.8,5,7.5l0.5,1c0.8,1.6,1.6,2.9,2.3,4.1
			c0.9,1.4,1.8,2.7,2.7,4c4.5,6.5,8.4,12,12.6,17.8c2.6,3.6,5.2,7.2,8,11.2l1.7,2.4l-2.9,0.2c-1.1,0.1-2.3,0.1-3.5,0
			c0.1,0.1,0.2,0.2,0.3,0.3c2.3,1.8,4.3,3.3,9,5.5l3.4,1.7l-3.6,1.3c-4.2,1.5-8.7,3.8-10.5,5.3L100.4,106.3z M91.6,89.8l0.6,0.6
			c1.5,1.4,3,2.9,4.4,4.5c2.1,2.5,3.7,4.8,4.7,6.6c1.7-1.1,4-2.3,6.6-3.4c-2.9-1.6-4.6-2.9-6.3-4.3c-1.4-1.1-2.9-2.2-5.2-3.7
			c-12.9-2.7-26.2-11.7-31-26.6l3-1c5.2,16.2,21.3,24.7,35,25.2c-2.1-3-4.2-5.8-6.2-8.6c-4.2-5.8-8.1-11.3-12.6-17.8
			c-0.9-1.3-1.8-2.7-2.8-4.1c-0.8-1.3-1.6-2.7-2.5-4.4l-0.5-1c-1.2-2.5-2.4-4.9-4.2-6.5c-1.9-1.8-4.7-2.7-7.5-2.6
			c-2.9,0.1-5.5,1.3-7.2,3.3c-0.8,1-1.4,2-1.6,3l-0.3,1.1L57,50.3c-1.3,0.1-2.7,0.2-4.2,0.3c3,1.7,4.3,2.4,4.8,2.6l0.7,0.3l0.2,0.8
			c1,4.1,0.6,5.9-0.3,9.6c-0.5,1.8-0.7,3.2-0.8,4.5c-0.1,1.3,0,2.8,0.2,4.4c0.6,3.1,1.7,5.9,3.2,8.3c1.6,2.5,3.8,4.5,6.4,6
			c2.4,1.3,5.1,2.3,8.6,3.1c4.8,1.1,10,1.1,15-0.1L91.6,89.8z"/>
	</g>
	<g>
		<path fill="#FFFFFF" d="M42.7,79.3l-2-2.5c4.3-3.6,10.6-16.3,9.1-22.6c-0.4-1.8-1.5-2.9-3.2-3.3c-2.1-0.5-3.7-0.3-4.8,0.4
			c-2.4,1.7-2.8,6.9-3.2,11.9c-0.5,5.8-0.9,11.8-4.2,15.5l-2.4-2.1c2.6-3,3-8.5,3.4-13.7c0.5-6,0.9-11.6,4.5-14.2
			c1.9-1.4,4.3-1.7,7.4-1c3,0.7,4.9,2.6,5.6,5.7C54.8,61.8,47.2,75.6,42.7,79.3z"/>
	</g>
	<g>
		
			<rect x="64.7" y="88.4" transform="matrix(0.9999 1.404013e-002 -1.404013e-002 0.9999 1.3287 -0.9211)" fill="#FFFFFF" width="3.2" height="11.5"/>
	</g>
	<g>
		
			<rect x="73.6" y="91.6" transform="matrix(0.9998 1.953229e-002 -1.953229e-002 0.9998 1.885 -1.4501)" fill="#FFFFFF" width="3.2" height="8.3"/>
	</g>
	<g>
		<path fill-rule="evenodd" clip-rule="evenodd" fill="#FFFFFF" d="M64.7,61.4c10.7,3.8,16.3,0.4,18.6-5l23,32.5
			C106.2,88.9,73.5,90.7,64.7,61.4"/>
	</g>
</g>
</svg>
