<?xml version="1.0" encoding="utf-8"?>
<!-- Generator: Adobe Illustrator 18.0.0, SVG Export Plug-In . SVG Version: 6.00 Build 0)  -->
<!DOCTYPE svg PUBLIC "-//W3C//DTD SVG 1.1//EN" "http://www.w3.org/Graphics/SVG/1.1/DTD/svg11.dtd">
<svg version="1.1" id="Layer_1" xmlns="http://www.w3.org/2000/svg" xmlns:xlink="http://www.w3.org/1999/xlink" x="0px" y="0px"
	 width="145px" height="145px" viewBox="0 0 145 145" enable-background="new 0 0 145 145" xml:space="preserve">
<g>
	<g>
		<path fill-rule="evenodd" clip-rule="evenodd" fill="#8F05C2" d="M72.5,3.1c38.4,0,69.4,31.1,69.4,69.4
			c0,38.4-31.1,69.4-69.4,69.4c-38.4,0-69.4-31.1-69.4-69.4C3.1,34.1,34.1,3.1,72.5,3.1"/>
	</g>
	<g>
		<path fill="#FFFFFF" d="M72.5,132.8c-33.2,0-60.3-27-60.3-60.3c0-33.2,27-60.3,60.3-60.3s60.3,27,60.3,60.3
			C132.8,105.7,105.7,132.8,72.5,132.8z M72.5,15.4C41,15.4,15.4,41,15.4,72.5s25.6,57.1,57.1,57.1c31.5,0,57.1-25.6,57.1-57.1
			S104,15.4,72.5,15.4z"/>
	</g>
	<g>
		<path fill-rule="evenodd" clip-rule="evenodd" fill="#FFFFFF" d="M59.7,31.2c0,0,3.7,0.7,3.3,4.2c0,0-0.5,2.9-4.5,2.5
			c0,0,0.6-0.6,1.6-0.5c0,0,0-2.8-0.9-4.3L59.1,33c-0.7,1.2-2,2-3.5,2c-2.3,0-4.1-1.8-4.1-4.1c0-0.9,0.3-1.7,0.8-2.4l-0.1,0
			c0,0-4.8-1.3-6.6,3.9c0,0,1.7,2.8,6.9,2c3.2,0.4,2.6,4-2.2,3.6c0,0-3.1-0.1-5.7-2.1c0,0-0.7,2.1-0.6,3.2c0,0,5,0.2,7.1,4.4
			c-5.3-5.7-14.2-5.5-12,4.2c0,0,5.5-0.6,8,1.1c0,0-10.7-3.2-18.9,5.4l-0.2-0.8c0,0-0.5-1.5-2.7-1.5c0,0,2.1,1.7,2.1,2
			c0,0.2-3.2-2.2-4.9-1.5l1.1,1.5c0,0,2.3-1.2,3,0.8c0,0-1.9-1.3-2.7,0.1c0,0,0.7,0.2,2,0.8l2,1c0,0,1.3,0.4,1.8-0.7
			c0,0,1.9-4.4,7.6-4.7c0,0,4.8-0.4,9.2,0.1c0,0,6.4,0.8,9.7-2.7c0,0,2.3-2.2,4.1-8L59,40.4c0,0,4-1.4,5.7-2.9c3.4-4-1-7.1-5.1-7.3
			l0,0c0,0.2,0.1,0.4,0.1,0.7C59.7,31,59.7,31.1,59.7,31.2L59.7,31.2z M45,26.8c-0.6,0.6-1,1.5-1,2.5c0,1,0.5,2,1.2,2.6
			c0.8-1.6,1.9-2.7,3-3.3c-0.3-0.3-1.4-1.1-3.3-0.4c0,0,0.9-1.1,2-1C46.8,27,46.2,26.7,45,26.8z M47.5,25.7c-0.6,0-1.2,0.2-1.7,0.5
			c0.9,0.1,2.2,0.4,3,2h0c0.6-0.3,1.2-0.5,1.8-0.6C50,26.5,48.8,25.7,47.5,25.7z M38.7,42c0,0-0.6,0.6-0.7,2.1
			c-3.5-1.2-4.5,2.1-2.8,4.8l-4.1,2.3l1-1.7L30,51.6c0,0-0.1-2.7,2.5-2.8l0.9,0.1C31.6,44.3,33.2,39.4,38.7,42z M44.5,32.6
			c0,0,3.2,3.1,8.3,2.4c0,0,1.3,0.1,1.3,1.2c0,0-1,2.3-6.4,0.8c0,0-2.9-1.2-3.8-3.7c0,0,3.5,4.6,9.5,2.8
			C53.4,36.1,47,37.1,44.5,32.6z M55.6,27.4c-0.9,0-1.7,0.3-2.3,0.8c0,0,3.5,0,4.7,2.8c0,0-1.1-1.9-3.9-2c0,0,2,0.8,2.1,2.4
			c0,0-0.9-1.5-3.7-2.2c-0.2,0.5-0.4,1-0.4,1.6c0,1.9,1.6,3.5,3.5,3.5c1.9,0,3.5-1.6,3.5-3.5C59,29,57.5,27.4,55.6,27.4z"/>
	</g>
	<g>
		<path fill="#FFFFFF" d="M71.4,88.5c-10.5,0-19-8.5-19-19s8.5-19,19-19c10.5,0,19,8.5,19,19S81.9,88.5,71.4,88.5z M71.4,53.4
			c-8.8,0-16,7.2-16,16s7.2,16,16,16c8.8,0,16-7.2,16-16S80.2,53.4,71.4,53.4z"/>
	</g>
	<g>
		<path fill-rule="evenodd" clip-rule="evenodd" fill="#FFFFFF" d="M74.2,69.4c0,0,0.4-1.1,1.8-0.6c0,0,0.5,1.3-0.5,1.9
			C74.7,70.9,74.2,70.1,74.2,69.4L74.2,69.4z M72.4,69.2c0,0-2.1-1.6-2.8,0.1c0,0,0,2.2,1.9,1.9c0,0,0.9,0,0.9-1.7L72.4,69.2
			L72.4,69.2z M77.1,73.6c0,0-0.4-1.1,0-0.8c0.3,0.2,2.3,1.6,2,2.8c0,0-0.6-0.2-1.1-1l-0.1,0c0,0,0.4,1,0.1,1.2c0,0-0.5,0-1-0.7
			l-1.5-1.8C75.4,72.8,76.9,73.5,77.1,73.6z M66,67.7c0,0,0.5-2.3,2.9-1.6c0,0,2.3,0.8,3.9,0.1c0,0,1.5-0.6,2.5,0.7
			c0,0,0.4,0.4,0.8,1c3.3,0.7,7.4-0.3,6.7-4.4c3.6,2.6,1.4,9.3-6.6,7.5l-0.1,0.2l0,0.2c0,0,0.1,0.4,1.7,0.8c0,0,0.9,0.2,1.1,0.7
			c0,0,2,2.6,1.5,3.8L80,76.5c-0.8-0.3-2.8,0.5-2.8,0.5c-0.8,0.2-2.8-1-2.8-1c-2-1.1-3-1.2-3-1.2l0.1,0.8c1.4,0.7,3.1,1.6,4.7,1.8
			c1.1,0.2,2.2-0.5,2.2-0.5c0.6-0.3,1.4-0.1,1.8-0.1c-0.2,0.4-0.7,1.5-1.6,1.6c0,0-1.2,0.3-2.5,0.3c0,0-1.9,0-2.6-1l-3.1-2.4
			c0,0-0.3,1.1-1.2,1.1l-0.9,0.1c0,0-0.9-0.1-1.1-1c0,0-1.2-0.5-1.2-1.5c0,0,0.5-2.5-0.1-3.3L66,70.4c-6,0.6-11.4-2.9-6-8.6
			C59.5,66.1,61.3,68,66,67.7z"/>
	</g>
	<g>
		<path fill-rule="evenodd" clip-rule="evenodd" fill="#FFFFFF" d="M91,84c1.5,0,2.7,1.2,2.7,2.7c0,0.2,0,0.3,0,0.5
			c-0.4,0-0.7-0.1-1.1-0.1c-1.4,0-2.7,0.3-3.9,0.9c-0.2-0.4-0.3-0.8-0.3-1.3C88.3,85.2,89.5,84,91,84 M101.3,88l-0.4-0.6
			c0,0,0.7-0.1,1.2-0.8l0.6,0.1C102.7,86.7,102.1,87.9,101.3,88z M100.2,82.9c1.5,0,2.7,1.2,2.7,2.7c0,0.1,0,0.3,0,0.4
			c-0.2-0.1-0.5-0.1-0.7-0.1c-0.7,0-1.3,0.2-1.8,0.5c-0.7-0.8-1.6-1.4-2.6-1.9C98.1,83.6,99.1,82.9,100.2,82.9z M104.1,95.8
			c0,0,2-1,3-4.1c0,0,0.1-3.3,2-3.5c0,0,0.8,0.1,0.3,1.1c0,0-1.2,0.2-1.2,2c0,0-0.2,1.8,0.9,2.5c0,0-2.3,2.7-3.4,3.2L104.1,95.8z
			 M106.3,98.1c0,0,0.5,1,0.4,2c0,0,2.5-1.8,3.8,0c0,0,1.1,1.4-0.2,3.9c0,0-0.4,0.6,0.3,1l2.6,1.5c0,0,0.9,0.3,0.8-0.7
			c0,0-0.4-1-0.9-1.2c0,0,1.1-0.1,1.5,1.5l1.2,1c0.6-2.7-2-3.1-3.9-3.4c0,0,1.3-4.3,0-6.1c0,0-1.2-2.1-4.2-0.4L106.3,98.1z
			 M109.7,89.6c0,0,1.8-0.5,2.2,0.3C111.8,90.7,109.3,90.8,109.7,89.6z M109.4,90.9c1.8,0.3,2.7-0.1,2.8-0.1
			C112,92.5,108.9,92.2,109.4,90.9z M116.9,85.6l0.7,10.2l0.3-5.6L116.9,85.6z M121.4,86.6l-1.1,8.3l1-4.3L121.4,86.6z M113.5,86.6
			l1.4,8.3l-0.3-4.4L113.5,86.6z M110.2,89h0.6c0,0,0.1-1.9,1.8-1.6c0,0-1.5,0.9-1.1,1.7c0,0,1.2,0.1,0.8,1.5c0,0,0.8,0.6-0.1,1.7
			c0,0,0.5,0.3,1.1,0.1c0,0-0.2,1-1.7,0.5c0,0-2.6-0.5-2.7-1.6l0.3-0.8l-0.1-0.4c0,0-0.6,0.4-0.5,2c0,0,0.2,2.5,4.7,1.5l0.3,0.2
			l-0.3,0.5c0,0,0.5,2.2,2.9,2.2c0,0,3.7,0.4,5.9-0.6c0,0,0.9-9.1-0.4-12.7c0,0-5.5-1.7-10.6,1.1l0.2,1.4c0,0,0.4-0.1,0.4,0.5
			c0,0-2.2-0.2-2.4,1.5C109.2,87.6,110,87.8,110.2,89z M111.1,83.5c0,0,4.6-2.6,10.8-1.2c0,0,1.1-2.6-1.5-2.6l-1,1.2l-0.1-1.1
			c0,0-0.1-0.8-1.3-0.3l-0.2-1.1c0,0-0.3-0.9-1.4-0.1c0,0-0.3-2.4-2-1.7c0,0-1.6,0.8-0.7,2.8l-0.3,0.4c-1.6-1.4-3.1,1.4-1.3,1.6
			C111.9,81.5,110.3,82,111.1,83.5z M89.1,88.5l1-0.3c0,0,1,1.1,2.3-0.3l1.1,0C92.6,89.7,90.1,89.8,89.1,88.5z M102.8,89.5
			c0,0-3.5,2.4-8.1,1c0,0-1.2-0.1-1.4,1c0,0,0.6,2.3,5.9,1.7c0,0,2.9-0.7,4.1-2.9c0,0-4,3.8-9.3,1.2C94,91.6,99.8,93.4,102.8,89.5z
			 M87.3,91.5c0,0-1.8-4.2-6.6-2.3c0,0-4.4,2.6-1.8,8.2c0,0,1.6,1.4,1.5,4.1c0,0-0.3,1.2,0.2,1.2c0.5,0,0.8-0.6,0.8-2.2
			c0,0,0.4,0.8,0.1,2.1c0,0,0.3,0.7,0.9,0c0,0,0.4-0.8,0.1-2c0,0,0.6,0.3,0.7,1.3c0,0,1.1-1.2-0.3-3.4c0,0-1.9-2.3-2.4-3.1
			c0,0-1.2-3.8,1.9-4.5c0,0,2.6-0.6,4.3,2.3l0.9,1.6l-0.9-0.4c0,0-0.1,9.6,9.1,10.8l-0.2-0.5c0,0,4.3,1.4,3.6,8.3
			c0,0-1.4,7.1,1.1,7.5l-0.3-2.3c0,0,1,0.5,0.7,2.7c0,0,0,0.9,0.9,1c0,0,0.7-0.2,0.4-1.8l-0.8-2.2c0,0,0.3-0.6,0.7,0l0.7,2.2
			c0,0,0.4-1.9-0.9-3.8l-0.7,0.6c0,0,1.8-6.3-1.6-11.8l1.3,0.9c10.9-3.2,2.6-15.9-5.6-6.9c0,0,1.3-3.8,6.5-3.7l0.1-2.5
			c0,0-4.9,2.5-7.9,0.4c0,0-0.9-0.3-1.1-1.6c0,0,0.2-1.6,2.5-1.4c0,0,3.9,0.9,6.1-0.6c-1-3.8-4.4-4.9-7.5-4.5
			c0.3,0.5,0.5,1.1,0.5,1.7c0,1.8-1.5,3.3-3.3,3.3c-1.3,0-2.4-0.7-2.9-1.8C87.4,89.2,87.1,90.3,87.3,91.5z"/>
	</g>
	<g>
		<path fill-rule="evenodd" clip-rule="evenodd" fill="#FFFFFF" d="M40.8,93.1c0,0,0.2-3.3,4-3.4l0,1c0,0-0.9,0.1-1.8,1.2
			c0,0,0.5-0.6,1.7-0.7C44.8,91.2,44.5,94,40.8,93.1 M32.5,94.5c0,0-2.6,0.6-1,3.3C32.9,96.9,33.1,95.8,32.5,94.5z M32.1,94
			c0,0,0.1-0.6-0.4-0.8c0,0-1.6,0.3-1.7,1.9l0.6-0.1C30.6,94.9,31,94.1,32.1,94z M50.6,87.3L50.6,87.3c0,0.5-0.3,0.8-0.6,0.8
			c-0.3,0-0.6-0.3-0.6-0.7c-1.2,1.5,1.7,2.3,2.9,1.9c1.2-0.4,2-1.5,1.3-1.7c-0.6,0.3-1.1,0.4-1.6,0.3c-0.1,0.3-0.3,0.4-0.5,0.4
			c-0.3,0-0.6-0.4-0.6-0.8l0,0C50.8,87.4,50.7,87.3,50.6,87.3C50.6,87.3,50.6,87.3,50.6,87.3z M49.2,83.2c0.3,0,0.6,0.4,0.6,0.8
			c0,0.5-0.2,0.8-0.6,0.8c-0.3,0-0.6-0.4-0.6-0.8C48.6,83.6,48.9,83.2,49.2,83.2z M47.8,81.1c1.4,0,2.5,1.1,2.5,2.5
			c0,1.4-1.1,2.5-2.5,2.5c-1.4,0-2.5-1.1-2.5-2.5C45.3,82.2,46.4,81.1,47.8,81.1z M52.8,80.2c1.4,0,2.5,1.1,2.5,2.5
			c0,0.6-0.2,1.1-0.5,1.5c-0.1-0.2-0.2-0.3-0.3-0.4c0.2-0.1,0.3-0.4,0.3-0.7c0-0.5-0.2-0.8-0.6-0.8c-0.3,0-0.6,0.4-0.6,0.8
			c0,0.1,0,0.2,0,0.2l-3.3,0.2c-0.1-0.3-0.1-0.5-0.1-0.8C50.3,81.4,51.4,80.2,52.8,80.2z M39.6,95.7c0,0-1,1.9-1.2,3.4
			c0,0,0.8-0.7,2.4-1.4c0,0-2,1.3-2.5,2.2c0,0-0.4,2.3,0.2,3.3c0,0,1.4,1.4,2.1,1.7l-2-0.6c0,0,1.6,3.7,4.5,4.5l-1-2.2
			c0,0,1.6,2.7,2.6,2.8c0,0-1.5-3.2,1.4-3.4l-0.3-5l-0.5-0.1c-0.2-0.8-0.5-2.5-2.4-3c0,0-1.4-0.9-2-1.7L39.6,95.7z M48.7,93.6
			c0,0,1.5,1.3,2.2,2.7c0,0-0.5-2.5-1.3-2.8c0,0,4.6-0.1,4.2,4.7l-0.4-0.1c0,0,2.7,4.3,1.1,7.8c0,0-1,2.8-3.8,3.1
			c0,0-2.6,0.8-4.2-3.8c0,0-0.6-2.2-0.3-5.1c-0.3,0.1-0.5,0.2-0.8,0.2C45.6,100.3,44.8,95.4,48.7,93.6z M45.6,109c0,0-1.2-0.2-1-1.6
			c0,0,0.4-1.1,1.7-0.7c0,0,3.3,3.2,3.7,9.1l-0.8-0.3c0,0,1.4,1.3,1.5,2.7c0,0-0.8-1.2-1.7,0.1c0,0-1.4-0.8-1.5,1.4
			c0,0-2.7-1.3-2.7-3.3C47.7,113,46.7,110.9,45.6,109z M53.5,108.7l1-1c0,0,2.9,1.6,3.7,6.3l-0.9-0.1c0,0,1.8,0.8,2.2,2.1
			c0,0-1.5-0.8-1.7,0.7c0,0-1.6-0.5-1.1,1.4c0,0-2.4,0.2-3.6-2.6C54.6,112.7,54.5,110.9,53.5,108.7z M47.9,120l1.3,0
			C49.4,118.9,47.8,117.9,47.9,120z M49.2,118.7c0,0,0.4,0.4,0.4,1c0,0,0.9-0.1,1-0.7C50.5,118.2,49.2,117.9,49.2,118.7z
			 M57.1,118.3c0,0,0.8,0.2,1.2-0.3c0,0-0.3-1-1.2-1C57,117,56.7,117.5,57.1,118.3z M58.1,117c0,0,0.4,0.2,0.6,0.7
			c0,0,0.9-0.1,1.1-0.7C59.8,116.9,58.4,115.4,58.1,117z M54.6,96.5l-0.2,2c0,0,2,2.8,1.3,5.9c0,0,0.7-0.8,1.8-0.1
			C57.5,104.3,57.2,99.8,54.6,96.5z M57.5,105.1c0,0-0.2-0.4-0.8-0.3c0,0-1,0.4-0.2,2.1C56.5,106.9,57.4,106.5,57.5,105.1z
			 M55.6,105.1c0,0-0.4,1.6-1,2.1l0.2,0.1l1-0.8L55.6,105.1z M50.2,97l0.1,0.9c0,0-0.8-0.1-2.2,1.1l2.2-0.5l0.3,3.9l-1.7,0.8
			l1.9-0.4l-0.1,3.1l0.4-3.2l1.6-0.1l-1.5-0.4l-0.4-3.8l1.4-0.1l-1.6-0.3L50.2,97z M44.8,85c-0.2,0.3-0.8,1.2,0.1,3.2
			c1.2,3.9-0.3,5.5-2.6,5.6c-3.1,0.2-4.4-2.2-9.9-1c0,0,0.4,0.3,0.4,1.1c0,0,1.1,0.8,0.7,2.3c0,0,3.2-2,5.9-1.1
			c2.7,0.9,4.2,0.4,4.2,0.4l-2,0.8c0,0,2.3,1,3.2,2c0,0,1-5.4,4.2-5.4c1.1-0.1,1.7,0.2,2.6,0.3c0,0-0.5-1.7,0.7-2.9
			c0,0,3.1-1,2.2-5.7l-0.7-0.9L51.1,84c-0.2,1.6-1.6,2.9-3.3,2.9C46.5,86.9,45.4,86.1,44.8,85z"/>
	</g>
	<g>
		<path fill-rule="evenodd" clip-rule="evenodd" fill="#FFFFFF" d="M88.4,30.1c-0.1,0.1-0.2,0.3-0.2,0.6c0,0.5,0.3,0.9,0.7,0.9
			c0.4,0,0.7-0.4,0.7-0.9c0-0.1,0-0.3-0.1-0.4c1.1,0.6,0.9,2.6-1.2,3c-2,0.3-3-1.1-3-1.1c-0.4-0.8,0.2-0.9,0.2-0.9
			c0.5,0.1,0.9,0.1,1.2,0l0,0c0,0.5,0.3,0.9,0.7,0.9c0.4,0,0.7-0.4,0.7-0.9c0-0.3-0.1-0.6-0.3-0.7C88.1,30.2,88.3,30.1,88.4,30.1
			 M99.9,38.9c0,0,1.2,0.9,4.2,0.9c0,0,1.4,0.2,1.8,2.7l0,0.9l-1.6,2.4l1.8-1.3c0,0-0.2,4.4-3.1,5.7c0,0,0.6-1.1,0.5-2.7
			c0,0-0.6,2.3-1.7,3.2c0,0,0.4-3.6-2.7-3c0,0,0-3.1-1.3-4.8c0,0,0.1-0.8,0.4-2c0.4-1.2,1.1-1.7,1.2-1.8
			C99.6,39.1,99.9,38.9,99.9,38.9z M101.2,50.4l-0.6-0.6c0,0,0.6,3.6,4.1,5.9c0,0,4,2.1,3.4,3.8c0,0-0.5,1.8-1.9,2.4
			c0,0-0.4-2-1.9-1.2c0,0-0.6-1.2-1.9-0.4c0,0-0.2-1.4,0.5-2l0.8,0.3c0,0-3.5-3.9-5.1-8.1c0,0,0.6-1.1,0.6-2.1
			C100.6,47.6,101.5,48.9,101.2,50.4z M93.5,49c-0.8-1.1-1.1-1.8-1.5-2.9l-1.8,0c0.5-0.4,1.1-0.5,1.6-0.6c-0.5-1.1-0.8-2.4-0.9-3.7
			l-1.4,0c0.5-0.3,0.9-0.5,1.4-0.6c0-0.4,0-0.8,0-1.2c0.1,0.3,0.2,0.7,0.3,1.1c1.4-0.1,2.5,0.6,2.5,0.6l-2.3,0
			c0.3,1.2,0.5,2.5,0.8,3.7c1.3,0,2.3,0.6,2.3,0.6l-2.1,0C92.6,47.3,93.5,48.9,93.5,49z M92.1,36.4c0,0-1,2.1-1.2,3.3
			c0,0-0.1-2.3,0.3-3.1c0,0-4.3,0.9-2.6,5.5l0.5-0.2c0,0-2.1,8.1,5.6,10.2c0,0,3.1,0.3,3.7-3.5c0,0,0.7-2.7-1.4-6.3l0.5,0.2
			C97.5,42.3,97.7,38,92.1,36.4z M102.3,36.5l-3.5-3.7c0,0-1.2-1.3-3.9-1l-0.1,0.8c0,0,1.3-0.1,2.4,0.9c0,0-0.8-0.4-2-0.3
			c0,0,0.6,0.8,1.8,1.3c1.5,0.5,2.5,0.8,3.9,1.9C101.3,36.6,101.7,36.6,102.3,36.5z M94.1,52.6c0,0-1.5-0.4-2.2-1.1
			c0,0-2.6,2.1,0,4.4l2,2c0,0-1.5-0.2-1.7,1.7c0,0,1.6-0.8,1.7,1c0,0,1.5-0.7,1.5,1.5c0,0,2.3-0.1,2.7-2.7c0,0,0-0.6-0.6-0.8
			c0,0-2.7-1.9-3.4-2.9C94.1,55.7,93,54.6,94.1,52.6z M105.7,62.2c0,0,0-1.1-0.7-1.3c0,0-0.6,0.2-0.7,1.2
			C104.3,62.1,105,62.7,105.7,62.2z M104.1,61.8c0,0,0-1.1-0.7-1.3c0,0-0.6,0.2-0.7,1.2C102.7,61.7,103.3,62.3,104.1,61.8z M95,62.3
			c0,0,0-1.1-0.7-1.3c0,0-0.6,0.2-0.7,1.2C93.5,62.2,94.2,62.7,95,62.3z M93.5,61.4c0,0,0-1.1-0.7-1.3c0,0-0.6,0.2-0.7,1.2
			C92.1,61.3,92.7,61.8,93.5,61.4z M82.9,29.6c0,0-1.7-1.5-1.8-3.5c0,0-1,0.1-1.9-0.2L79,29.3c0,0,0.3,2,1.6,2.8l8,5.3
			c0,0,0.6-1.5-1.1-2.5C87.5,34.8,83.6,33.3,82.9,29.6z M83.1,25.5l-1.7-2c0,0-2.2-0.4-2.2,1c0,0,0.1,1,1.1,1H83.1z M84.4,24.1
			c0,0-0.6-1-2.4-0.7l1.1,1.1C83.2,24.4,83.6,24.7,84.4,24.1z M87.9,26.2c-0.3,0.1-0.4,0.4-0.3,0.8c0.1,0.4,0.4,0.7,0.6,0.6
			c0.3-0.1,0.4-0.4,0.3-0.8C88.4,26.4,88.1,26.1,87.9,26.2z M89.6,24c-1.4,0-2.4,1.1-2.2,2.5c0.2,1.4,1.4,2.5,2.8,2.5
			c1.4,0,2.4-1.1,2.2-2.5C92.3,25.1,91,24,89.6,24z M82.5,26.4c-0.3,0.1-0.4,0.4-0.3,0.8c0.1,0.4,0.4,0.7,0.6,0.6
			c0.3-0.1,0.4-0.4,0.3-0.8C83,26.6,82.8,26.4,82.5,26.4z M82.1,26c-0.1,0.3-0.1,0.5,0,0.8c0.1,0.7,0.4,1.3,0.9,1.7
			c0.3-1.2,1.6-1.3,1.6-1.3l2.5,0c0-0.1,0-0.3,0-0.4c-0.1-1.1-0.9-2-1.9-2.3c-1,0.7-1.6,0.6-1.9,0.5l0.9,1H82.1z M110.2,40.3
			c0,0,0-0.7,0.5-0.9c0,0,1.6,0.9,1.3,2.5l-0.5,0L110.2,40.3z M109.9,40.9c0,0,2,1,0.3,3.4c0,0-1.8-1.1-1-3.1
			C109.3,41,109.8,41,109.9,40.9z M110.4,39.1c0,0-1.9-2-5.3-1.8c0,0-3.5,0.2-5.3-1c0,0-0.7-0.7-2.2-1c0,0-2.8-0.8-3.4-3.4
			c0,0,0.6-3.7-1.1-4.7c-0.2,1.4-1.3,2.4-2.8,2.4c-1.4,0-2.7-0.9-3.2-2.1l-2.2,0.1c0,0-1.6,0.1-1.3,1.9c0,0,0.3,3.3,4.1,4.5
			c0,0,1.6,0.7,1.7,2.7c0,0,2.5-1.9,5.4-0.1c0,0,1.9,0.6,3.2,3.6c0,0,0.2-0.5,0.5-0.9c0,0,1.1-0.8,1.1-1.2c0,0,1.3,1,2.6,0.9
			c0,0,2.1-0.2,3.5,0.5l3.2,2.5c0,0-0.3-1.9,1.1-1.9C109.8,40.1,109.7,39.2,110.4,39.1z"/>
	</g>
	<g>
		<path fill="#FFFFFF" d="M82.8,82.8l8.5,11.6L89,96.1l-8.5-11.6L82.8,82.8z M54.4,43.4c0.6,0.8,1.5,2.2,2.6,3.7
			c1.6,2.2,3.5,4.9,5.2,7.3l-2.3,1.7c-1.7-2.3-3.6-5.1-5.2-7.4l-0.7-1.1c0-1.2-0.2-2-0.2-2l0.4,0.2C54.4,44.9,54.5,44.1,54.4,43.4z"
			/>
	</g>
	<g>
		<path fill="#FFFFFF" d="M62.2,84.5l-8.5,11.6l-2.3-1.7l8.5-11.6L62.2,84.5z M91.3,44.5c-0.3,0.4-1.3,1.8-2.7,3.8
			c-1.5,2.1-3.5,4.8-5.7,7.9l-2.3-1.7c2.3-3.1,4.2-5.8,5.7-7.9c1.3-1.7,2.2-3.1,2.7-3.8L91.3,44.5z"/>
	</g>
</g>
</svg>
