<?xml version="1.0" encoding="utf-8"?>
<!-- Generator: Adobe Illustrator 18.0.0, SVG Export Plug-In . SVG Version: 6.00 Build 0)  -->
<!DOCTYPE svg PUBLIC "-//W3C//DTD SVG 1.1//EN" "http://www.w3.org/Graphics/SVG/1.1/DTD/svg11.dtd">
<svg version="1.1" id="Layer_1" xmlns="http://www.w3.org/2000/svg" xmlns:xlink="http://www.w3.org/1999/xlink" x="0px" y="0px"
	 width="145px" height="145px" viewBox="0 0 145 145" enable-background="new 0 0 145 145" xml:space="preserve">
<g>
	<g>
		<path fill-rule="evenodd" clip-rule="evenodd" fill="#7E3FD8" d="M72.5,3.1c38.4,0,69.4,31.1,69.4,69.4
			c0,38.4-31.1,69.4-69.4,69.4c-38.4,0-69.4-31.1-69.4-69.4C3.1,34.1,34.1,3.1,72.5,3.1"/>
	</g>
	<g>
		<path fill="#FFFFFF" d="M72.5,132.8c-33.2,0-60.3-27-60.3-60.3c0-33.2,27-60.3,60.3-60.3s60.3,27,60.3,60.3
			C132.8,105.7,105.7,132.8,72.5,132.8z M72.5,15.4C41,15.4,15.4,41,15.4,72.5s25.6,57.1,57.1,57.1s57.1-25.6,57.1-57.1
			S104,15.4,72.5,15.4z"/>
	</g>
	<g>
		<rect x="30.7" y="45.3" fill-rule="evenodd" clip-rule="evenodd" fill="#FFFFFF" width="83.6" height="54.4"/>
	</g>
	<g>
		<path fill-rule="evenodd" clip-rule="evenodd" fill="#7E3FD8" d="M58.5,63.1c0,0,0.6-1.5,2.5-0.8c0,0,0.7,1.8-0.7,2.6
			C59.2,65.2,58.5,64,58.5,63.1L58.5,63.1z M56.1,62.9c0,0-2.9-2.1-3.8,0.1c0,0,0,3,2.6,2.6c0,0,1.2,0,1.2-2.3L56.1,62.9L56.1,62.9z
			 M62.4,68.7c0,0-0.6-1.5,0-1.1c0.3,0.3,3.1,2.2,2.7,3.8c0,0-0.8-0.2-1.5-1.3l-0.2,0c0,0,0.5,1.4,0.2,1.7c0,0-0.7,0-1.3-1l-2-2.4
			C60.1,67.8,62.1,68.6,62.4,68.7z M47.4,60.8c0,0,0.6-3.2,3.9-2.2c0,0,3.1,1,5.2,0.2c0,0,2.1-0.8,3.3,0.9c0,0,0.6,0.5,1.1,1.3
			c4.4,1,10-0.5,9.1-5.9c4.8,3.4,1.9,12.5-8.9,10.1l-0.1,0.2l0,0.2c0,0,0.1,0.5,2.3,1.1c0,0,1.2,0.3,1.5,1c0,0,2.8,3.6,2.1,5.1
			l-0.6-0.2c-1.1-0.4-3.7,0.6-3.7,0.6c-1.1,0.2-3.7-1.3-3.7-1.3c-2.7-1.5-4-1.6-4-1.6l0.2,1.1c1.9,0.9,4.1,2.2,6.3,2.4
			c1.4,0.3,3-0.7,3-0.7c0.9-0.4,2-0.2,2.4-0.1c-0.3,0.6-1,2.1-2.1,2.1c0,0-1.6,0.4-3.4,0.3c0,0-2.6-0.1-3.5-1.3l-4.2-3.2
			c0,0-0.4,1.5-1.6,1.5l-1.3,0.1c0,0-1.3-0.1-1.5-1.4c0,0-1.7-0.7-1.6-2c0,0,0.7-3.3-0.2-4.4l-0.1-0.4c-8.1,0.8-15.4-3.9-8.1-11.6
			C38.7,58.7,41.1,61.2,47.4,60.8z"/>
	</g>
	<g>
		<path fill="#7E3FD8" d="M107.7,54.9c1.1,0,2,0.9,2,2c0,1.1-0.9,2-2,2h-18c-1.1,0-2-0.9-2-2c0-1.1,0.9-2,2-2H107.7z"/>
	</g>
	<g>
		<path fill="#7E3FD8" d="M107.7,64.6c1.1,0,2,0.9,2,2s-0.9,2-2,2H79.2c-1.1,0-2-0.9-2-2s0.9-2,2-2H107.7z"/>
	</g>
	<g>
		<path fill="#7E3FD8" d="M107.7,82.9c1.1,0,2,0.9,2,2c0,1.1-0.9,2-2,2h-14c-1.1,0-2-0.9-2-2c0-1.1,0.9-2,2-2H107.7z"/>
	</g>
	<g>
		<path fill="#7E3FD8" d="M86.1,82.9c1.1,0,2,0.9,2,2c0,1.1-0.9,2-2,2h-14c-1.1,0-2-0.9-2-2c0-1.1,0.9-2,2-2H86.1z"/>
	</g>
	<g>
		<path fill-rule="evenodd" clip-rule="evenodd" fill="#7E3FD8" d="M80.5,91.6c1.1,0,2,0.9,2,2c0,1.1-0.9,2-2,2c-1.1,0-2-0.9-2-2
			C78.5,92.5,79.4,91.6,80.5,91.6 M89.5,91.6c1.1,0,2,0.9,2,2c0,1.1-0.9,2-2,2c-1.1,0-2-0.9-2-2C87.5,92.5,88.4,91.6,89.5,91.6z
			 M98.6,91.6c1.1,0,2,0.9,2,2c0,1.1-0.9,2-2,2c-1.1,0-2-0.9-2-2C96.5,92.5,97.4,91.6,98.6,91.6z M107.6,91.6c1.1,0,2,0.9,2,2
			c0,1.1-0.9,2-2,2c-1.1,0-2-0.9-2-2C105.6,92.5,106.5,91.6,107.6,91.6z M71.4,91.6c1.1,0,2,0.9,2,2c0,1.1-0.9,2-2,2
			c-1.1,0-2-0.9-2-2C69.4,92.5,70.3,91.6,71.4,91.6z"/>
	</g>
</g>
</svg>
