<?xml version="1.0" encoding="utf-8"?>
<!-- Generator: Adobe Illustrator 18.0.0, SVG Export Plug-In . SVG Version: 6.00 Build 0)  -->
<!DOCTYPE svg PUBLIC "-//W3C//DTD SVG 1.1//EN" "http://www.w3.org/Graphics/SVG/1.1/DTD/svg11.dtd">
<svg version="1.1" id="Layer_1" xmlns="http://www.w3.org/2000/svg" xmlns:xlink="http://www.w3.org/1999/xlink" x="0px" y="0px"
	 width="145px" height="145px" viewBox="0 0 145 145" enable-background="new 0 0 145 145" xml:space="preserve">
<g>
	<g>
		<path fill-rule="evenodd" clip-rule="evenodd" fill="#7E3FD8" d="M72.5,3.1c38.4,0,69.4,31.1,69.4,69.4
			c0,38.4-31.1,69.4-69.4,69.4c-38.4,0-69.4-31.1-69.4-69.4C3.1,34.1,34.1,3.1,72.5,3.1"/>
	</g>
	<g>
		<path fill="#FFFFFF" d="M72.5,132.8c-33.2,0-60.3-27-60.3-60.3c0-33.2,27-60.3,60.3-60.3s60.3,27,60.3,60.3
			C132.8,105.7,105.7,132.8,72.5,132.8z M72.5,15.4C41,15.4,15.4,41,15.4,72.5s25.6,57.1,57.1,57.1s57.1-25.6,57.1-57.1
			S104,15.4,72.5,15.4z"/>
	</g>
	<g>
		<path fill="#FFFFFF" d="M72.8,92.1c-10.8,0-19.7-8.8-19.7-19.7c0-10.8,8.8-19.7,19.7-19.7c10.8,0,19.7,8.8,19.7,19.7
			C92.5,83.3,83.7,92.1,72.8,92.1z M72.8,55.8c-9.2,0-16.7,7.5-16.7,16.7s7.5,16.7,16.7,16.7s16.7-7.5,16.7-16.7S82,55.8,72.8,55.8z
			"/>
	</g>
	<g>
		<path fill-rule="evenodd" clip-rule="evenodd" fill="#FFFFFF" d="M91.2,33.8c4.1,0,7.4,3.3,7.4,7.4c0,4.1-3.3,7.4-7.4,7.4
			c-4.1,0-7.4-3.3-7.4-7.4C83.8,37.1,87.1,33.8,91.2,33.8"/>
	</g>
	<g>
		<path fill-rule="evenodd" clip-rule="evenodd" fill="#FFFFFF" d="M50.6,44.2c4.1,0,7.4,3.3,7.4,7.4c0,4.1-3.3,7.4-7.4,7.4
			c-4.1,0-7.4-3.3-7.4-7.4C43.3,47.5,46.6,44.2,50.6,44.2"/>
	</g>
	<g>
		<path fill-rule="evenodd" clip-rule="evenodd" fill="#FFFFFF" d="M38.9,76.3c4.1,0,7.4,3.3,7.4,7.4c0,4.1-3.3,7.4-7.4,7.4
			c-4.1,0-7.4-3.3-7.4-7.4C31.5,79.6,34.8,76.3,38.9,76.3"/>
	</g>
	<g>
		<path fill-rule="evenodd" clip-rule="evenodd" fill="#FFFFFF" d="M105.1,68.2c4.1,0,7.4,3.3,7.4,7.4c0,4.1-3.3,7.4-7.4,7.4
			c-4.1,0-7.4-3.3-7.4-7.4C97.7,71.5,101.1,68.2,105.1,68.2"/>
	</g>
	<g>
		<path fill-rule="evenodd" clip-rule="evenodd" fill="#FFFFFF" d="M80,96.6c4.1,0,7.4,3.3,7.4,7.4c0,4.1-3.3,7.4-7.4,7.4
			c-4.1,0-7.4-3.3-7.4-7.4C72.6,99.9,75.9,96.6,80,96.6"/>
	</g>
	<g>
		<path fill="#FFFFFF" d="M83.2,57.5l-2.5-1.6c2.9-4.6,6.9-11,6.9-11l2.5,1.6C90,46.5,86.1,52.8,83.2,57.5z"/>
	</g>
	<g>
		<path fill="#FFFFFF" d="M58.2,61.5c-4-3.8-10-9.3-10-9.3l2-2.2c0,0,5.9,5.5,10,9.3L58.2,61.5z"/>
	</g>
	<g>
		<path fill="#FFFFFF" d="M43.6,83.9l-1.1-2.8c0,0,7.2-2.7,12.4-4.7l1.1,2.8C50.9,81.2,43.6,83.9,43.6,83.9z"/>
	</g>
	<g>
		<path fill="#FFFFFF" d="M104.1,75.9c0,0-7.8-0.8-13.3-1.4l0.3-3c5.5,0.6,13.3,1.4,13.3,1.4L104.1,75.9z"/>
	</g>
	<g>
		<path fill="#FFFFFF" d="M78.7,103.3c0,0-1.7-7.6-2.9-12.9l2.9-0.7c1.2,5.4,2.9,12.9,2.9,12.9L78.7,103.3z"/>
	</g>
	<g>
		<path fill-rule="evenodd" clip-rule="evenodd" fill="#FFFFFF" d="M75.7,72.3c0,0,0.4-1.2,1.9-0.6c0,0,0.5,1.4-0.6,2
			C76.3,74,75.8,73.1,75.7,72.3L75.7,72.3z M73.9,72.2c0,0-2.2-1.6-2.9,0.1c0,0,0,2.3,2,2c0,0,0.9,0,0.9-1.8L73.9,72.2L73.9,72.2z
			 M78.8,76.7c0,0-0.4-1.1,0-0.8c0.3,0.2,2.4,1.7,2.1,2.9c0,0-0.6-0.2-1.1-1l-0.1,0c0,0,0.4,1.1,0.1,1.3c0,0-0.5,0-1-0.8l-1.5-1.9
			C77,76,78.6,76.6,78.8,76.7z M67.3,70.6c0,0,0.5-2.4,3-1.7c0,0,2.4,0.8,4,0.1c0,0,1.6-0.6,2.6,0.7c0,0,0.4,0.4,0.9,1
			c3.4,0.8,7.7-0.4,7-4.6c3.7,2.6,1.4,9.6-6.8,7.7l-0.1,0.2l0,0.2c0,0,0.1,0.4,1.8,0.9c0,0,0.9,0.2,1.1,0.8c0,0,2.1,2.7,1.6,3.9
			l-0.4-0.1C81,79.4,79,80.2,79,80.2c-0.8,0.2-2.9-1-2.9-1C74,78.1,73,78,73,78l0.1,0.8c1.5,0.7,3.2,1.7,4.8,1.8
			c1.1,0.2,2.3-0.5,2.3-0.5c0.7-0.3,1.5-0.1,1.9-0.1c-0.2,0.5-0.8,1.6-1.6,1.6c0,0-1.2,0.3-2.6,0.3c0,0-2,0-2.7-1L72,78.5
			c0,0-0.3,1.1-1.2,1.1l-1,0.1c0,0-1-0.1-1.2-1c0,0-1.3-0.5-1.2-1.5c0,0,0.5-2.6-0.1-3.4l-0.1-0.3c-6.2,0.6-11.9-3-6.2-8.9
			C60.6,69,62.4,70.9,67.3,70.6z"/>
	</g>
</g>
</svg>
