<?xml version="1.0" encoding="utf-8"?>
<!-- Generator: Adobe Illustrator 18.0.0, SVG Export Plug-In . SVG Version: 6.00 Build 0)  -->
<!DOCTYPE svg PUBLIC "-//W3C//DTD SVG 1.1//EN" "http://www.w3.org/Graphics/SVG/1.1/DTD/svg11.dtd">
<svg version="1.1" id="Layer_1" xmlns="http://www.w3.org/2000/svg" xmlns:xlink="http://www.w3.org/1999/xlink" x="0px" y="0px"
	 width="145px" height="145px" viewBox="0 0 145 145" style="enable-background:new 0 0 145 145;" xml:space="preserve">
<style type="text/css">
	.st0{fill-rule:evenodd;clip-rule:evenodd;fill:#8E05C2;}
	.st1{fill:#FFFFFF;}
	.st2{fill-rule:evenodd;clip-rule:evenodd;fill:#FFFFFF;}
</style>
<g>
	<g>
		<path class="st0" d="M72.5,3.1c38.4,0,69.4,31.1,69.4,69.4c0,38.4-31.1,69.4-69.4,69.4c-38.4,0-69.4-31.1-69.4-69.4
			C3.1,34.1,34.1,3.1,72.5,3.1"/>
	</g>
	<g>
		<path class="st1" d="M72.5,132.8c-33.2,0-60.3-27-60.3-60.3c0-33.2,27-60.3,60.3-60.3s60.3,27,60.3,60.3
			C132.8,105.7,105.7,132.8,72.5,132.8z M72.5,15.4C41,15.4,15.4,41,15.4,72.5s25.6,57.1,57.1,57.1s57.1-25.6,57.1-57.1
			S104,15.4,72.5,15.4z"/>
	</g>
	<g>
		<path class="st2" d="M45.1,71.4c-0.2-1.3-0.3-2.5-0.3-3.9c0-1.3,0.1-2.6,0.3-3.9h-3.1v7.7H45.1z M56.7,97.8h34.8l-3-4.8
			c-4.3,2.4-9.2,3.8-14.4,3.8c-5.2,0-10.2-1.4-14.4-3.8L56.7,97.8z M42.7,97.8h8.4l4.6-7.5c-0.8-0.7-1.6-1.4-2.3-2.1
			c-3.9-3.9-6.7-8.9-7.9-14.5h-3.6v2.7h-2.4v-2.7v-2.4v-7.7v-2.4v-2.7h2.4v2.7h3.6c1.2-5.6,4-10.6,7.9-14.5
			c5.3-5.3,12.6-8.6,20.7-8.6c8.1,0,15.4,3.3,20.7,8.6c5.3,5.3,8.6,12.6,8.6,20.7c0,8.1-3.3,15.4-8.6,20.7c-0.7,0.7-1.5,1.4-2.3,2.1
			l4.6,7.5h8.4v5.4H42.7V97.8z M63.1,66c0.8,1,1.3,2.4,1.3,3.8c0,3.3-2.7,6-6,6c-3.3,0-6-2.7-6-6c0-3.1,2.3-5.6,5.4-6
			c-0.8-1-1.3-2.4-1.3-3.8c0-3.3,2.7-6,6-6c1.3,0,2.5,0.4,3.5,1.1c-0.8-1-1.3-2.3-1.3-3.8c0-3.3,2.7-6,6-6c3.3,0,6,2.7,6,6
			c0,3.3-2.7,6-6,6c-1.3,0-2.5-0.4-3.5-1.1c0.8,1,1.3,2.3,1.3,3.8C68.5,63.2,66.1,65.7,63.1,66z M85.2,49.5c3.3,0,6,2.7,6,6
			c0,0.8-0.2,1.7-0.5,2.4c2.5,0.7,4.3,3,4.3,5.8c0,0.1,0,0.2,0,0.3c1.5,1.1,2.5,2.9,2.5,4.8c0,3.3-2.7,6-6,6c-3.3,0-6-2.7-6-6
			c0-0.1,0-0.2,0-0.3c-1.5-1.1-2.5-2.9-2.5-4.8c0-0.8,0.2-1.7,0.5-2.4c-2.5-0.7-4.3-3-4.3-5.8C79.2,52.2,81.9,49.5,85.2,49.5z
			 M77.4,70.4c-0.5,0.6-1.2,1.1-2.1,1.3l12.1,19.5c-3.9,2.2-8.5,3.5-13.3,3.5c-4.8,0-9.4-1.3-13.3-3.5l12.1-19.5
			c-0.8-0.2-1.5-0.7-2.1-1.3l0,0c-0.7-0.8-1.1-1.8-1.1-2.9c0-2.4,2-4.4,4.4-4.4c2.4,0,4.4,2,4.4,4.4C78.5,68.6,78.1,69.6,77.4,70.4
			L77.4,70.4z M58.3,86.1l-1.5,2.4c-0.7-0.6-1.3-1.2-2-1.8c-4.9-4.9-8-11.7-8-19.2c0-7.5,3-14.3,8-19.2c4.9-4.9,11.7-8,19.3-8
			c7.5,0,14.3,3,19.2,8c4.9,4.9,8,11.7,8,19.2c0,7.5-3,14.3-8,19.2c-0.6,0.6-1.3,1.2-2,1.8l-1.5-2.4c5.3-4.5,8.6-11.2,8.6-18.6
			c0-13.5-10.9-24.4-24.4-24.4c-13.5,0-24.4,10.9-24.4,24.4C49.7,75,53.1,81.7,58.3,86.1z"/>
	</g>
	<g>
		<path class="st2" d="M74,74.7l9.3,15c-6.5,2.7-12.1,3.1-18.7,0.3L74,74.7z"/>
	</g>
</g>
</svg>
