<?xml version="1.0" encoding="utf-8"?>
<!-- Generator: Adobe Illustrator 18.0.0, SVG Export Plug-In . SVG Version: 6.00 Build 0)  -->
<!DOCTYPE svg PUBLIC "-//W3C//DTD SVG 1.1//EN" "http://www.w3.org/Graphics/SVG/1.1/DTD/svg11.dtd">
<svg version="1.1" id="Layer_1" xmlns="http://www.w3.org/2000/svg" xmlns:xlink="http://www.w3.org/1999/xlink" x="0px" y="0px"
	 width="145px" height="145px" viewBox="0 0 145 145" enable-background="new 0 0 145 145" xml:space="preserve">
<g>
	<g>
		<path fill-rule="evenodd" clip-rule="evenodd" fill="#7E3FD8" d="M72.5,3.1c38.4,0,69.4,31.1,69.4,69.4
			c0,38.4-31.1,69.4-69.4,69.4c-38.4,0-69.4-31.1-69.4-69.4C3.1,34.1,34.1,3.1,72.5,3.1"/>
	</g>
	<g>
		<path fill="#FFFFFF" d="M72.5,132.8c-33.2,0-60.3-27-60.3-60.3c0-33.2,27-60.3,60.3-60.3s60.3,27,60.3,60.3
			C132.8,105.7,105.7,132.8,72.5,132.8z M72.5,15.4C41,15.4,15.4,41,15.4,72.5s25.6,57.1,57.1,57.1s57.1-25.6,57.1-57.1
			S104,15.4,72.5,15.4z"/>
	</g>
	<g>
		<path fill="#FFFFFF" d="M107.2,100H33.1c-0.8,0-1.5-0.7-1.5-1.5v-7.9c0-0.8,0.7-1.5,1.5-1.5c3.7,0,6.7-3,6.7-6.7
			c0-3.7-3-6.7-6.7-6.7c-0.8,0-1.5-0.7-1.5-1.5v-7.9c0-0.8,0.7-1.5,1.5-1.5h74.1c0.8,0,1.5,0.7,1.5,1.5v7.9c0,0.8-0.7,1.5-1.5,1.5
			c-3.7,0-6.7,3-6.7,6.7c0,3.7,3,6.7,6.7,6.7c0.8,0,1.5,0.7,1.5,1.5v7.9C108.7,99.3,108.1,100,107.2,100z M34.6,97h71.1v-5
			c-4.7-0.7-8.2-4.8-8.2-9.6s3.6-8.9,8.2-9.6v-5H34.6v5c4.7,0.7,8.2,4.8,8.2,9.6s-3.6,8.9-8.2,9.6V97z"/>
	</g>
	<g>
		<path fill="#FFFFFF" d="M87.5,100c-0.8,0-1.5-0.7-1.5-1.5V66.2c0-0.8,0.7-1.5,1.5-1.5s1.5,0.7,1.5,1.5v32.2
			C89,99.3,88.3,100,87.5,100z"/>
	</g>
	<g>
		<path fill="#FFFFFF" d="M107.3,72.1c-0.6,0-1.2-0.4-1.4-0.9c-0.3-0.8,0.1-1.6,0.8-2l5.1-2.1l-1.9-4.6c-4.6,1.1-9.4-1.3-11.3-5.8
			c-1-2.4-1-5.1,0-7.5c0.8-1.9,2.2-3.5,3.9-4.6l-1.9-4.6L33.8,67.6c-0.8,0.3-1.6-0.1-2-0.8c-0.3-0.8,0.1-1.6,0.8-2l68.3-28.1
			c0.8-0.3,1.6,0.1,2,0.8l3,7.3c0.2,0.4,0.1,0.8,0,1.1c-0.2,0.4-0.4,0.7-0.8,0.8c-1.7,0.7-3,2-3.7,3.6c-0.7,1.7-0.7,3.5,0,5.2
			c1.4,3.4,5.4,5.1,8.8,3.7c0.8-0.3,1.6,0.1,2,0.8l3,7.3c0.2,0.4,0.1,0.8,0,1.1c-0.2,0.4-0.4,0.7-0.8,0.8l-6.5,2.7
			C107.6,72.1,107.4,72.1,107.3,72.1z"/>
	</g>
	<g>
		<path fill="#FFFFFF" d="M91.7,67.7c-0.6,0-1.2-0.4-1.4-0.9l-8.5-20.6c-0.3-0.8,0.1-1.6,0.8-2c0.8-0.3,1.6,0.1,2,0.8l8.5,20.6
			c0.3,0.8-0.1,1.6-0.8,2C92.1,67.7,91.9,67.7,91.7,67.7z"/>
	</g>
</g>
</svg>
