<?xml version="1.0" encoding="utf-8"?>
<!-- Generator: Adobe Illustrator 18.0.0, SVG Export Plug-In . SVG Version: 6.00 Build 0)  -->
<!DOCTYPE svg PUBLIC "-//W3C//DTD SVG 1.1//EN" "http://www.w3.org/Graphics/SVG/1.1/DTD/svg11.dtd">
<svg version="1.1" id="Layer_1" xmlns="http://www.w3.org/2000/svg" xmlns:xlink="http://www.w3.org/1999/xlink" x="0px" y="0px"
	 width="145px" height="145px" viewBox="0 0 145 145" enable-background="new 0 0 145 145" xml:space="preserve">
<g>
	<g>
		<path fill-rule="evenodd" clip-rule="evenodd" fill="#7E3FD8" d="M72.5,3.1c38.4,0,69.4,31.1,69.4,69.4
			c0,38.4-31.1,69.4-69.4,69.4c-38.4,0-69.4-31.1-69.4-69.4C3.1,34.1,34.1,3.1,72.5,3.1"/>
	</g>
	<g>
		<path fill="#FFFFFF" d="M72.5,132.8c-33.2,0-60.3-27-60.3-60.3s27-60.3,60.3-60.3s60.3,27,60.3,60.3S105.7,132.8,72.5,132.8z
			 M72.5,15.4C41,15.4,15.4,41,15.4,72.5s25.6,57.1,57.1,57.1c31.5,0,57.1-25.6,57.1-57.1S104,15.4,72.5,15.4z"/>
	</g>
	<g>
		<polygon fill="#FFFFFF" points="101.4,109.6 43.6,109.6 43.6,41.3 58.5,41.3 58.5,44.5 46.8,44.5 46.8,106.4 98.2,106.4 
			98.2,44.5 86.5,44.5 86.5,41.3 101.4,41.3 		"/>
	</g>
	<g>
		<path fill="#FFFFFF" d="M91.3,51.7H53.7v-3c0-6.7,4.5-7.6,7.6-8.2c1.2-0.2,2.3-0.5,3-1c1.4-0.9,1.4-1.4,1.7-2.9
			c0-0.3,0.1-0.6,0.2-0.9c0.7-3.8,3.2-6,6.8-6l0.1,0c2.7,0,6.2,1.6,7,6.1c0.1,0.6,0.1,1.1,0.2,1.6c0.1,1.2,0.1,1.4,1.3,2.1
			c0.7,0.4,1.7,0.7,2.7,1c3,0.9,7.1,2.1,7.1,8.2V51.7z M56.9,48.5h31.2c-0.1-3.5-2-4.1-4.8-4.9c-1.2-0.3-2.4-0.7-3.5-1.4
			c-2.5-1.5-2.7-2.9-2.9-4.6c0-0.4-0.1-0.8-0.1-1.3c-0.6-3.2-3.1-3.4-3.9-3.4c-0.8,0-3.1,0.1-3.7,3.4c-0.1,0.3-0.1,0.6-0.1,0.8
			c-0.3,1.7-0.5,3.3-3,5c-1.2,0.9-2.7,1.2-4.2,1.5C59,44.2,57,44.6,56.9,48.5z"/>
	</g>
	<g>
		<path fill-rule="evenodd" clip-rule="evenodd" fill="#FFFFFF" d="M72.5,59.2c9,0,16.3,7.3,16.3,16.3s-7.3,16.3-16.3,16.3
			c-9,0-16.3-7.3-16.3-16.3S63.5,59.2,72.5,59.2"/>
	</g>
	<g>
		<polygon fill="#7E3FD8" points="69.6,83.8 62.3,77.6 64.4,75.1 69.4,79.4 80.5,68.2 82.8,70.4 		"/>
	</g>
</g>
</svg>
