<?xml version="1.0" encoding="utf-8"?>
<!-- Generator: Adobe Illustrator 18.0.0, SVG Export Plug-In . SVG Version: 6.00 Build 0)  -->
<!DOCTYPE svg PUBLIC "-//W3C//DTD SVG 1.1//EN" "http://www.w3.org/Graphics/SVG/1.1/DTD/svg11.dtd">
<svg version="1.1" id="Layer_1" xmlns="http://www.w3.org/2000/svg" xmlns:xlink="http://www.w3.org/1999/xlink" x="0px" y="0px"
	 width="145px" height="145px" viewBox="0 0 145 145" enable-background="new 0 0 145 145" xml:space="preserve">
<g>
	<g>
		<path fill-rule="evenodd" clip-rule="evenodd" fill="#7E3FD8" d="M72.5,3.1c38.4,0,69.4,31.1,69.4,69.4
			c0,38.4-31.1,69.4-69.4,69.4c-38.4,0-69.4-31.1-69.4-69.4C3.1,34.1,34.1,3.1,72.5,3.1"/>
	</g>
	<g>
		<path fill="#FFFFFF" d="M72.5,132.8c-33.2,0-60.3-27-60.3-60.3s27-60.3,60.3-60.3c33.2,0,60.3,27,60.3,60.3
			S105.7,132.8,72.5,132.8z M72.5,15.4C41,15.4,15.4,41,15.4,72.5s25.6,57.1,57.1,57.1c31.5,0,57.1-25.6,57.1-57.1
			S104,15.4,72.5,15.4z"/>
	</g>
	<g>
		<path fill-rule="evenodd" clip-rule="evenodd" fill="#FFFFFF" d="M109.4,40.4H92.2v21.2c0,0,0.1,0,0.1,0h17.1c0-0.4,0-0.6,0-0.7
			C109.4,54.1,109.4,47.2,109.4,40.4L109.4,40.4z"/>
	</g>
	<g>
		<polygon fill="#FFFFFF" points="61.3,72.4 49.2,72.4 49.2,101.4 83.4,101.4 83.4,72.4 79.2,72.4 83.7,69.2 85,69.2 86.6,69.2 
			86.6,70.8 86.6,103 86.6,104.6 85,104.6 47.6,104.6 46,104.6 46,103 46,70.8 46,69.2 47.6,69.2 62.1,69.2 		"/>
	</g>
	<g>
		<path fill-rule="evenodd" clip-rule="evenodd" fill="#FFFFFF" d="M62.1,69.5c0.4-1.6,1.1-3.2,1.6-4.8c0.3-0.9,0.8-1.4,1.6-1.8
			c1.2-0.5,2.5-0.8,3.9-0.6c0.6,0.1,1.2,0.2,1.7,0.5c0.6,0.3,0.8,0.9,0.5,1.5c-0.2,0.3-0.4,0.6-0.6,0.9c-3.2,3.5-6.3,7-9.5,10.5
			c-0.2,0.2-0.3,0.4-0.4,0.6c-0.6,1.3-0.7,2.6-0.4,3.9c0.3,1.2,1.1,1.7,2.3,1.3c0.7-0.3,1.5-0.6,2.1-1.1C71.2,76,77.5,71.5,83.7,67
			c0.2-0.1,0.3-0.3,0.4-0.5c0.4-1.1,0.7-2.2,1.1-3.3c0.1-0.3,0.2-0.5,0.4-0.7c1.1-1.2,2.3-2.3,3.4-3.4c0.2-0.2,0.3-0.4,0.3-0.7
			c0-3.7,0-7.5,0-11.2c0-0.1,0-0.3,0-0.4c-0.2,0-0.3,0-0.4,0c-4.2,0-8.4,0-12.7,0c-0.2,0-0.4,0.1-0.6,0.2c-2.9,1.7-5.8,3.5-8.7,5.2
			c-1.9,1.1-3.7,2.3-5.6,3.4c-1.6,1-2.8,2.5-3.5,4.3c-0.7,1.8-1.3,3.6-1.9,5.4c-0.5,1.4-0.9,2.8-1.4,4.2c0.1,0,0.2,0,0.3,0
			C55.9,69.5,62,69.5,62.1,69.5"/>
	</g>
	<g>
		<rect x="35.6" y="101.4" fill="#FFFFFF" width="61.4" height="3.2"/>
	</g>
</g>
</svg>
